<svg xmlns="http://www.w3.org/2000/svg" version="1.1" xmlns:xlink="http://www.w3.org/1999/xlink" xmlns:svgjs="http://svgjs.com/svgjs" width="512" height="512" x="0" y="0" viewBox="0 0 512 512.001" style="enable-background:new 0 0 512 512" xml:space="preserve" class=""><g transform="matrix(0.72,0,0,0.72,100.21104125976561,71.68)"><path d="M348.945 221.64v-96.894c0-2.773-1.28-5.336-3.093-7.363L237.219 3.309C235.19 1.176 232.309 0 229.429 0H57.196C25.398 0 0 25.93 0 57.73v325.684c0 31.8 25.398 57.305 57.195 57.305h135.953C218.863 483.402 265.605 512 318.852 512c80.886 0 146.941-65.734 146.941-146.727.11-70.75-50.688-129.867-116.848-143.632ZM240.102 37.458l72.882 76.723h-47.273c-14.086 0-25.61-11.63-25.61-25.715ZM57.195 419.375c-19.953 0-35.851-16.008-35.851-35.96V57.73c0-20.062 15.898-36.386 35.851-36.386h161.563v67.12c0 25.93 21.023 47.06 46.953 47.06h61.89v83.34c-3.199-.106-5.761-.427-8.535-.427-37.242 0-71.496 14.301-97.32 36.711H86.223c-5.871 0-10.672 4.801-10.672 10.668 0 5.872 4.8 10.672 10.672 10.672h115.675c-7.578 10.672-13.875 21.344-18.78 33.082H86.222c-5.871 0-10.672 4.801-10.672 10.672 0 5.867 4.8 10.672 10.672 10.672h89.957c-2.668 10.672-4.055 22.516-4.055 34.36 0 19.206 3.734 38.203 10.457 54.21H57.195Zm261.766 71.39c-69.149 0-125.387-56.238-125.387-125.386 0-69.149 56.13-125.387 125.387-125.387 69.254 0 125.383 56.238 125.383 125.387 0 69.148-56.235 125.387-125.383 125.387Zm0 0" style="stroke:none;fill-rule:nonzero;fill-opacity:1;" fill="#ffffff" data-original="#000000" class=""></path><path d="M86.223 223.027H194.32c5.871 0 10.672-4.804 10.672-10.672 0-5.87-4.8-10.671-10.672-10.671H86.223c-5.871 0-10.672 4.8-10.672 10.671 0 5.868 4.8 10.672 10.672 10.672ZM362.39 355.348h-32.652V322.16c0-5.867-4.804-10.672-10.672-10.672-5.87 0-10.671 4.805-10.671 10.672v33.188h-33.188c-5.871 0-10.672 4.804-10.672 10.672 0 5.87 4.8 10.671 10.672 10.671h33.188v32.653c0 5.87 4.8 10.672 10.671 10.672 5.868 0 10.672-4.801 10.672-10.672V376.69h32.653c5.87 0 10.671-4.8 10.671-10.671 0-5.868-4.8-10.672-10.671-10.672Zm0 0" style="stroke:none;fill-rule:nonzero;fill-opacity:1;" fill="#ffffff" data-original="#000000" class=""></path></g></svg>