<svg xmlns="http://www.w3.org/2000/svg" version="1.1" xmlns:xlink="http://www.w3.org/1999/xlink" xmlns:svgjs="http://svgjs.com/svgjs" width="512" height="512" x="0" y="0" viewBox="0 0 512 512" style="enable-background:new 0 0 512 512" xml:space="preserve" class=""><g transform="matrix(0.72,0,0,0.72,71.6760813522339,72.49289978027343)"><circle cx="194.197" cy="475.803" r="26.197" style="stroke-width: 22; stroke-linecap: round; stroke-linejoin: round; stroke-miterlimit: 10;" transform="rotate(-14.76 194.178 475.848)" fill="none" stroke="#ffffff" stroke-width="22" stroke-linecap="round" stroke-linejoin="round" stroke-miterlimit="10" data-original="#000000"></circle><circle cx="317.803" cy="475.803" r="26.197" style="stroke-width: 22; stroke-linecap: round; stroke-linejoin: round; stroke-miterlimit: 10;" transform="rotate(-75.244 317.793 475.81)" fill="none" stroke="#ffffff" stroke-width="22" stroke-linecap="round" stroke-linejoin="round" stroke-miterlimit="10" data-original="#000000"></circle><path d="M317.803 449.005v-30.952M194.197 296.98v152.025M317.803 330.059V296.98M317.803 372.992h0M89.72 296.98c-44.03 0-79.72-35.69-79.72-79.73 0-44.03 35.69-79.72 79.72-79.72 2.67 0 5.3.15 7.89.41C105.38 66 166.27 10 240.25 10c56.14 0 104.73 32.27 128.3 79.23a106.51 106.51 0 0 1 27.73-3.69c56.98 0 105.72 48.88 105.72 105.73 0 57.33-48.36 105.71-105.72 105.71H89.72z" style="stroke-width: 22; stroke-linecap: round; stroke-linejoin: round; stroke-miterlimit: 10;" fill="none" stroke="#ffffff" stroke-width="22" stroke-linecap="round" stroke-linejoin="round" stroke-miterlimit="10" data-original="#000000"></path><path d="M287.647 225.232h-63.294c-9.898 0-17.921-8.024-17.921-17.921v-63.294c0-9.898 8.024-17.921 17.921-17.921h63.294c9.898 0 17.921 8.024 17.921 17.921v63.294c0 9.898-8.023 17.921-17.921 17.921zM236.538 126.096v-22.212M275.463 126.096v-22.212M236.538 247.644v-22.212M275.463 247.644v-22.212M305.668 156.301h22.212M305.668 195.226h22.212M184.12 156.301h22.212M184.12 195.226h22.212" style="stroke-width: 22; stroke-linecap: round; stroke-linejoin: round; stroke-miterlimit: 10;" fill="none" stroke="#ffffff" stroke-width="22" stroke-linecap="round" stroke-linejoin="round" stroke-miterlimit="10" data-original="#000000"></path><circle cx="37.486" cy="475.803" r="26.197" style="stroke-width: 22; stroke-linecap: round; stroke-linejoin: round; stroke-miterlimit: 10;" transform="rotate(-14.76 37.457 475.837)" fill="none" stroke="#ffffff" stroke-width="22" stroke-linecap="round" stroke-linejoin="round" stroke-miterlimit="10" data-original="#000000"></circle><path d="M106.469 296.98v61.309c0 10.356-8.396 18.752-18.752 18.752H56.238c-10.356 0-18.752 8.396-18.752 18.752v53.212" style="stroke-width: 22; stroke-linecap: round; stroke-linejoin: round; stroke-miterlimit: 10;" fill="none" stroke="#ffffff" stroke-width="22" stroke-linecap="round" stroke-linejoin="round" stroke-miterlimit="10" data-original="#000000"></path><circle cx="474.514" cy="475.803" r="26.197" style="stroke-width: 22; stroke-linecap: round; stroke-linejoin: round; stroke-miterlimit: 10;" transform="rotate(-75.244 474.504 475.813)" fill="none" stroke="#ffffff" stroke-width="22" stroke-linecap="round" stroke-linejoin="round" stroke-miterlimit="10" data-original="#000000"></circle><path d="M405.531 296.98v61.309c0 10.356 8.396 18.752 18.752 18.752h31.478c10.356 0 18.752 8.396 18.752 18.752v53.212" style="stroke-width: 22; stroke-linecap: round; stroke-linejoin: round; stroke-miterlimit: 10;" fill="none" stroke="#ffffff" stroke-width="22" stroke-linecap="round" stroke-linejoin="round" stroke-miterlimit="10" data-original="#000000"></path></g></svg>