<svg xmlns="http://www.w3.org/2000/svg" version="1.1" xmlns:xlink="http://www.w3.org/1999/xlink" xmlns:svgjs="http://svgjs.com/svgjs" width="512" height="512" x="0" y="0" viewBox="0 0 36 36" style="enable-background:new 0 0 512 512" xml:space="preserve" class=""><g transform="matrix(0.72,0,0,0.72,5.0400010681152345,5.039998965263372)"><path d="M2.81 12.3a.81.81 0 0 1-.81-.81V7.15A5.15 5.15 0 0 1 7.15 2h5.42a.81.81 0 0 1 0 1.63H7.15a3.53 3.53 0 0 0-3.52 3.52v4.34a.81.81 0 0 1-.82.81zM33.19 12.3a.81.81 0 0 1-.81-.81V7.15a3.53 3.53 0 0 0-3.53-3.53h-5.43a.81.81 0 0 1 0-1.63h5.42A5.15 5.15 0 0 1 34 7.15v4.34a.81.81 0 0 1-.81.81zM28.85 34h-5.43a.81.81 0 0 1 0-1.63h5.42a3.53 3.53 0 0 0 3.53-3.53v-4.33a.81.81 0 1 1 1.63 0v4.34A5.16 5.16 0 0 1 28.85 34zM12.58 34H7.15A5.15 5.15 0 0 1 2 28.85v-4.34a.81.81 0 1 1 1.63 0v4.34a3.53 3.53 0 0 0 3.53 3.53h5.42a.81.81 0 0 1 0 1.63zM27.84 18.81A.81.81 0 0 1 27 18a1.34 1.34 0 0 0-.4-1l-1.53-1.53a10 10 0 0 0-14.19 0 .81.81 0 0 1-1.15-1.15 11.66 11.66 0 0 1 16.49 0l1.53 1.53a3 3 0 0 1 .9 2.15.81.81 0 0 1-.81.81zM18 25.06a11.58 11.58 0 0 1-8.25-3.42l-1.53-1.53A3 3 0 0 1 7.35 18 .81.81 0 0 1 9 18a1.34 1.34 0 0 0 .4 1l1.53 1.53a10 10 0 0 0 14.19 0 .81.81 0 0 1 1.15 1.15A11.58 11.58 0 0 1 18 25.06z" fill="#ffffff" data-original="#000000" class=""></path><path d="M18 22.07A4.07 4.07 0 1 1 22.07 18 4.07 4.07 0 0 1 18 22.07zm0-6.51A2.44 2.44 0 1 0 20.44 18 2.44 2.44 0 0 0 18 15.56z" fill="#ffffff" data-original="#000000" class=""></path></g></svg>