<svg xmlns="http://www.w3.org/2000/svg" version="1.1" xmlns:xlink="http://www.w3.org/1999/xlink" xmlns:svgjs="http://svgjs.com/svgjs" width="512" height="512" x="0" y="0" viewBox="0 0 512 512" style="enable-background:new 0 0 512 512" xml:space="preserve" class=""><g transform="matrix(0.64,0,0,0.64,92.0068256950378,92.0914169883728)"><path d="M499.605 64.519h-276.6a69.581 69.581 0 0 0-137.083 0H11.54a12 12 0 0 0 0 24h74.383a69.581 69.581 0 0 0 137.083 0h276.6a12 12 0 1 0 0-24zm-345.141 57.6a45.6 45.6 0 1 1 45.6-45.595 45.647 45.647 0 0 1-45.6 45.592zM499.605 243.808h-52.826a69.582 69.582 0 0 0-137.083 0H11.54a12 12 0 0 0 0 24H309.7a69.581 69.581 0 0 0 137.083 0h52.826a12 12 0 1 0 0-24zm-121.367 57.6a45.6 45.6 0 1 1 45.6-45.6 45.647 45.647 0 0 1-45.6 45.598zM499.605 423.1h-276.6a69.581 69.581 0 0 0-137.083 0H11.54a12 12 0 0 0 0 24h74.383a69.581 69.581 0 0 0 137.083 0h276.6a12 12 0 1 0 0-24zm-345.141 57.6a45.6 45.6 0 1 1 45.6-45.595 45.647 45.647 0 0 1-45.6 45.595z" fill="#ffffff" data-original="#000000" class=""></path></g></svg>