<svg xmlns="http://www.w3.org/2000/svg" version="1.1" xmlns:xlink="http://www.w3.org/1999/xlink" xmlns:svgjs="http://svgjs.com/svgjs" width="512" height="512" x="0" y="0" viewBox="0 0 60 60" style="enable-background:new 0 0 512 512" xml:space="preserve" class=""><g transform="matrix(0.8600000000000001,0,0,0.8599999999999999,4.200070228576649,4.199891452789306)"><path d="M46.353 17.063c0-.366-.2-.703-.522-.879L26.154 5.486a.999.999 0 0 0-.955 0L5.522 16.184a1.002 1.002 0 0 0 0 1.758l7.317 3.978-7.315 3.977a1.002 1.002 0 0 0 0 1.758l7.313 3.978-7.312 3.971a1 1 0 0 0-.001 1.757l19.67 10.701a.998.998 0 0 0 .956.001l6.283-3.416a1 1 0 0 0-.955-1.757l-5.806 3.156-17.576-9.562 6.834-3.712 10.264 5.583a.998.998 0 0 0 .956.001l19.682-10.701a1.002 1.002 0 0 0 0-1.758l-7.317-3.978 7.315-3.977a1 1 0 0 0 .523-.879zm-3.092 9.713-17.588 9.563-17.577-9.563 6.838-3.717 10.265 5.581a.998.998 0 0 0 .956 0l10.267-5.582zm-17.585-.154L8.094 17.063l17.583-9.56 17.583 9.56z" fill="#ffffff" data-original="#000000" class=""></path><path d="m54.484 36.665-9.25-5.118a1.005 1.005 0 0 0-.969 0l-9.25 5.118a1 1 0 0 0-.516.875v1.833c0 4.353 1.512 8.435 4.257 11.492 1.723 1.918 3.652 3.176 5.733 3.736a1.042 1.042 0 0 0 .52 0c2.081-.561 4.01-1.818 5.733-3.736C53.488 47.807 55 43.725 55 39.373V37.54a1 1 0 0 0-.516-.875zM53 39.373c0 3.859-1.33 7.466-3.745 10.156-1.386 1.542-2.9 2.573-4.505 3.065-1.605-.492-3.119-1.523-4.505-3.065-2.415-2.69-3.745-6.297-3.745-10.156V38.13l8.25-4.565L53 38.13z" fill="#ffffff" data-original="#000000" class=""></path><path d="M41.452 42.839a.999.999 0 1 0-1.414 1.414l2.325 2.325a.997.997 0 0 0 1.414 0l5.685-5.685a.999.999 0 1 0-1.414-1.414l-4.978 4.978z" fill="#ffffff" data-original="#000000" class=""></path></g></svg>