<svg xmlns="http://www.w3.org/2000/svg" version="1.1" xmlns:xlink="http://www.w3.org/1999/xlink" xmlns:svgjs="http://svgjs.com/svgjs" width="512" height="512" x="0" y="0" viewBox="0 0 24 24" style="enable-background:new 0 0 512 512" xml:space="preserve" class=""><g transform="matrix(0.7999999999999999,0,0,0.7999999999999999,2.4000000000000004,2.400000000000004)"><path fill="#ffffff" d="M16.167 6a.167.167 0 0 0-.167.167v1.666c0 .092.075.167.167.167h1.666A.167.167 0 0 0 18 7.833V6.167A.167.167 0 0 0 17.833 6zM16 18v-.5a.5.5 0 0 1 1 0v.5h1v-.5a.5.5 0 0 1 1 0v1a.5.5 0 0 1-.5.5h-4a.5.5 0 0 1-.5-.5v-1a.5.5 0 0 1 1 0v.5zm-3-7h.5a.5.5 0 0 1 0 1h-2a.5.5 0 0 1 0-1h.5v-1h-1.5a.5.5 0 0 1 0-1h3a.5.5 0 0 1 0 1H13zm5 1h-.5a.5.5 0 0 1 0-1h.5v-.5a.5.5 0 0 1 1 0v2a.5.5 0 0 1-1 0zm-5 2h-.5a.5.5 0 0 1 0-1h1a.5.5 0 0 1 .5.5v2a.5.5 0 0 1-.5.5h-3a.5.5 0 0 1 0-1H13zm3.167-9h1.666C18.478 5 19 5.522 19 6.167v1.666C19 8.478 18.478 9 17.833 9h-1.666A1.167 1.167 0 0 1 15 7.833V6.167C15 5.522 15.522 5 16.167 5zm-10 0h1.666C8.478 5 9 5.522 9 6.167v1.666C9 8.478 8.478 9 7.833 9H6.167A1.167 1.167 0 0 1 5 7.833V6.167C5 5.522 5.522 5 6.167 5zm0 1A.167.167 0 0 0 6 6.167v1.666c0 .092.075.167.167.167h1.666A.167.167 0 0 0 8 7.833V6.167A.167.167 0 0 0 7.833 6zm0 9h1.666C8.478 15 9 15.522 9 16.167v1.666C9 18.478 8.478 19 7.833 19H6.167A1.167 1.167 0 0 1 5 17.833v-1.666C5 15.522 5.522 15 6.167 15zm0 1a.167.167 0 0 0-.167.167v1.666c0 .092.075.167.167.167h1.666A.167.167 0 0 0 8 17.833v-1.666A.167.167 0 0 0 7.833 16zM13 6h-2.5a.5.5 0 0 1 0-1h3a.5.5 0 0 1 .5.5v2a.5.5 0 0 1-1 0zm-2.5 2a.5.5 0 0 1 0-1h1a.5.5 0 0 1 0 1zm-5 6a.5.5 0 0 1 0-1h2a.5.5 0 0 1 0 1zm4 0a.5.5 0 0 1 0-1h1a.5.5 0 0 1 0 1zm1.5 4v.5a.5.5 0 0 1-1 0v-1a.5.5 0 0 1 .5-.5h2a.5.5 0 0 1 0 1zm-2-7h.5a.5.5 0 0 1 0 1h-1a.5.5 0 0 1-.5-.5V11h-.5a.5.5 0 0 1 0-1h1a.5.5 0 0 1 .5.5zm-4-.5a.5.5 0 0 1 1 0v1a.5.5 0 0 1-1 0zm10 0a.5.5 0 0 1 1 0v2a.5.5 0 0 1-1 0zm2 4.5v-.5a.5.5 0 0 1 .5-.5h1a.5.5 0 0 1 0 1H18v.5a.5.5 0 0 1-.5.5h-2a.5.5 0 0 1-.5-.5v-1a.5.5 0 0 1 1 0v.5zM3 6.5a.5.5 0 0 1-1 0v-2A2.5 2.5 0 0 1 4.5 2h2a.5.5 0 0 1 0 1h-2A1.5 1.5 0 0 0 3 4.5zM17.5 3a.5.5 0 0 1 0-1h2A2.5 2.5 0 0 1 22 4.5v2a.5.5 0 0 1-1 0v-2A1.5 1.5 0 0 0 19.5 3zm-11 18a.5.5 0 0 1 0 1h-2A2.5 2.5 0 0 1 2 19.5v-2a.5.5 0 0 1 1 0v2A1.5 1.5 0 0 0 4.5 21zM21 17.5a.5.5 0 0 1 1 0v2a2.5 2.5 0 0 1-2.5 2.5h-2a.5.5 0 0 1 0-1h2a1.5 1.5 0 0 0 1.5-1.5z" data-original="#000000" class=""></path></g></svg>