<?xml version="1.0" encoding="utf-8"?>
<!-- Generator: Adobe Illustrator 26.3.1, SVG Export Plug-In . SVG Version: 6.00 Build 0)  -->
<svg version="1.1" id="Layer_1" xmlns="http://www.w3.org/2000/svg" xmlns:xlink="http://www.w3.org/1999/xlink" x="0px" y="0px"
	 viewBox="0 0 944.13 944.13" style="enable-background:new 0 0 944.13 944.13;" xml:space="preserve">
<style type="text/css">
	.st0{fill:url(#SVGID_1_);}
	.st1{fill:url(#SVGID_00000034809676704424091330000002743490419892319888_);}
	.st2{fill:url(#SVGID_00000099663025426766086500000006810564972174982026_);}
	.st3{fill:url(#SVGID_00000150800045685456867090000018176819284451122049_);}
	.st4{fill:#FFFFFF;}
	.st5{fill:url(#SVGID_00000151537466662778206920000012728117437951393696_);}
	.st6{fill:url(#SVGID_00000029741520839101811750000003513390448321216697_);}
	.st7{fill:url(#SVGID_00000046298624492686719260000000725240893750393270_);}
	.st8{fill:url(#SVGID_00000013173122298707280350000012552182806828380815_);}
	.st9{fill:url(#SVGID_00000066489581010360475150000008913536951829232782_);}
	.st10{fill:url(#SVGID_00000055704247376332198490000017139282413864586681_);}
	.st11{fill:url(#SVGID_00000052815787045440603720000008029445194762492292_);}
	.st12{fill:url(#SVGID_00000111906497776591923840000004806758900468852361_);}
	.st13{fill:#191919;}
	.st14{fill:url(#SVGID_00000150060009841371487130000008326481925674128287_);}
	.st15{fill:url(#SVGID_00000183964902412263848310000010400476681570759066_);}
	.st16{fill:url(#SVGID_00000005984848812209378290000003717456300245078943_);}
	.st17{fill:url(#SVGID_00000007404837957947750860000008551871706750037923_);}
	.st18{fill:url(#SVGID_00000133529964734911299770000007064346739142043318_);}
	.st19{fill:url(#SVGID_00000122709626816396501050000013831557893760455068_);}
	.st20{fill:url(#SVGID_00000065046789569214222250000009979985140204166065_);}
	.st21{fill:url(#SVGID_00000091000893960706358600000002403847470893869481_);}
	.st22{fill:url(#SVGID_00000093163459519059384910000016231046839932642189_);}
	.st23{fill:url(#SVGID_00000102514592163724347670000003615205004453888660_);}
	.st24{fill:url(#SVGID_00000021812497581691487810000013697294030510516610_);}
	.st25{fill:url(#SVGID_00000105411888730043485620000014633796867511096714_);}
	.st26{fill:#170B6B;}
	.st27{fill:url(#SVGID_00000063601047342906537400000013150328637909822140_);}
	.st28{fill:url(#SVGID_00000065060931260904195330000013640523609288104116_);}
	.st29{fill:url(#SVGID_00000116945970503714482090000008915297421940656027_);}
	.st30{fill:url(#SVGID_00000073682497180419965300000011631646630524919705_);}
</style>
<g>
	<g>
		
			<linearGradient id="SVGID_1_" gradientUnits="userSpaceOnUse" x1="1496.7119" y1="2177.0476" x2="1496.7119" y2="1528.8348" gradientTransform="matrix(0.7071 0.7071 -0.7071 0.7071 654.7654 -1961.4269)">
			<stop  offset="0" style="stop-color:#90EE26"/>
			<stop  offset="0.1039" style="stop-color:#97EF34"/>
			<stop  offset="0.2989" style="stop-color:#A9F258"/>
			<stop  offset="0.5642" style="stop-color:#C7F692"/>
			<stop  offset="0.8863" style="stop-color:#F0FDE1"/>
			<stop  offset="1" style="stop-color:#FFFFFF"/>
		</linearGradient>
		<path class="st0" d="M252.31,469.33L252.31,469.33c-17.95,45.43-26.94,93.61-26.91,141.76c0,31.95,3.93,63.87,11.84,94.99
			l0.03-0.03l6.93-6.93l161.09-161.09l132.08-132.08l162.46-162.46l6.27-6.27c-2.39-0.64-4.8-1.21-7.24-1.75
			c-125.45-29.25-262.69,5.06-360.48,102.85l-0.03,0.03C299.8,376.91,271.11,421.62,252.31,469.33z"/>
		
			<linearGradient id="SVGID_00000157303773176949956650000013964155256676413607_" gradientUnits="userSpaceOnUse" x1="1685.8369" y1="2177.2737" x2="1685.8369" y2="1520.0751" gradientTransform="matrix(0.7071 0.7071 -0.7071 0.7071 654.7654 -1961.4269)">
			<stop  offset="0" style="stop-color:#00D084"/>
			<stop  offset="0.0903" style="stop-color:#0DD28A"/>
			<stop  offset="0.2587" style="stop-color:#30D99B"/>
			<stop  offset="0.4868" style="stop-color:#69E3B7"/>
			<stop  offset="0.7625" style="stop-color:#B7F2DC"/>
			<stop  offset="1" style="stop-color:#FFFFFF"/>
		</linearGradient>
		<path style="fill:url(#SVGID_00000157303773176949956650000013964155256676413607_);" d="M691.86,474.83
			c17.95-45.43,26.91-93.58,26.91-141.76c0-32.15-3.98-64.33-11.99-95.66c-0.21-0.1-0.44-0.13-0.69-0.18l-6.27,6.27L537.37,405.95
			L405.29,538.03L244.2,699.12l0,0l-6.93,6.93l-0.03,0.03c0.05,0.26,0.08,0.49,0.18,0.69c2.62,0.67,5.24,1.34,7.88,1.93
			c-0.18-1.41-0.18-1.41,0,0c125.48,29.22,262.71-5.08,360.5-102.88l0.03-0.03C644.4,567.22,673.09,522.51,691.86,474.83z"/>
		
			<linearGradient id="SVGID_00000094603060110701724110000004116090271199710909_" gradientUnits="userSpaceOnUse" x1="1639.4589" y1="2299.7375" x2="1639.4589" y2="1387.5227" gradientTransform="matrix(0.7071 0.7071 -0.7071 0.7071 654.7654 -1961.4269)">
			<stop  offset="1.900645e-04" style="stop-color:#5120FF"/>
			<stop  offset="0.2081" style="stop-color:#3650FF"/>
			<stop  offset="0.4592" style="stop-color:#1884FF"/>
			<stop  offset="0.5822" style="stop-color:#0D98FF"/>
			<stop  offset="1" style="stop-color:#83C5FF"/>
		</linearGradient>
		<path style="fill:url(#SVGID_00000094603060110701724110000004116090271199710909_);" d="M433.1,3.18
			c68.64-0.03,137.26,26.17,189.63,78.53c14.71,14.71,27.4,30.74,37.98,47.69c1.16,1.87,2.31,3.75,3.44,5.65
			c19.39,32.28,33.56,66.8,42.63,102.36c8.01,31.33,11.99,63.51,11.99,95.66c0,48.18-8.96,96.33-26.91,141.76
			c-18.77,47.69-47.46,92.4-86.03,130.97l-0.03,0.03c-97.79,97.79-235.03,132.1-360.5,102.88c-6.85-1.49-6.85-1.49,0,0
			c-2.65-0.59-5.26-1.26-7.88-1.93c9.55,37.64,24.91,74.1,46.04,107.97c0,0,0.01,0.01,0.01,0.01
			c10.58,16.95,23.27,32.97,37.98,47.69c52.36,52.36,121.01,78.53,189.63,78.53c8.22,0,16.38-0.36,24.55-1.13
			c17.64-2.39,35.21-5.78,52.54-10.17c79.79-20.16,155.29-61.4,217.69-123.81l0.03-0.03C914,697.73,958.71,550.2,939.99,409.49
			c-13.17-99.2-57.88-195.02-134.1-271.24C729.66,62.04,633.85,17.33,534.64,4.15c-42.14-5.62-84.87-5.52-126.99,0.23
			C416.1,3.59,424.63,3.18,433.1,3.18z"/>
		
			<linearGradient id="SVGID_00000102537364209085124940000002971808327138244236_" gradientUnits="userSpaceOnUse" x1="1543.3802" y1="1377.5833" x2="1543.3802" y2="2340.2998" gradientTransform="matrix(0.7071 0.7071 -0.7071 0.7071 654.7654 -1961.4269)">
			<stop  offset="1.900645e-04" style="stop-color:#5120FF"/>
			<stop  offset="0.2081" style="stop-color:#3650FF"/>
			<stop  offset="0.4592" style="stop-color:#1884FF"/>
			<stop  offset="0.5822" style="stop-color:#0D98FF"/>
			<stop  offset="1" style="stop-color:#83C5FF"/>
		</linearGradient>
		<path style="fill:url(#SVGID_00000102537364209085124940000002971808327138244236_);" d="M0,472.08c0,20.9,1.39,41.81,4.16,62.56
			l0,0c13.17,99.2,57.88,195.02,134.1,271.24c76.22,76.22,172.03,120.93,271.24,134.1c41.83,5.57,84.28,5.55,126.12-0.13
			c-8.17,0.77-16.33,1.13-24.55,1.13c-68.62,0-137.26-26.17-189.63-78.53c-14.71-14.71-27.4-30.74-37.98-47.69
			c-21.14-33.87-36.49-70.34-46.04-107.99l0,0c-0.1-0.21-0.13-0.44-0.18-0.69c-7.91-31.12-11.84-63.05-11.84-94.99
			c-0.03-48.15,8.96-96.33,26.91-141.76c18.8-47.71,47.48-92.42,86.03-130.97l0.03-0.03c97.79-97.79,235.03-132.1,360.48-102.85
			c2.44,0.54,4.85,1.1,7.24,1.75c0.26,0.05,0.49,0.08,0.69,0.18c-9.07-35.57-23.24-70.08-42.63-102.36
			c-1.13-1.9-2.29-3.77-3.44-5.65c-10.58-16.95-23.27-32.97-37.98-47.69C570.37,29.34,501.75,3.15,433.1,3.18
			c-8.47,0-17,0.41-25.45,1.21c-0.1,0-0.18,0.03-0.23,0.03c-17,2.36-33.9,5.6-50.64,9.81c-0.08,0.03-0.15,0.05-0.23,0.08
			c-79.97,20.08-155.73,61.43-218.26,123.96l-0.03,0.03C46.1,230.45,0.03,351.25,0,472.08z"/>
	</g>
</g>
</svg>
