<?xml version="1.0" encoding="utf-8"?>
<!-- Generator: Adobe Illustrator 25.0.0, SVG Export Plug-In . SVG Version: 6.00 Build 0)  -->
<svg version="1.1" id="Layer_1" xmlns="http://www.w3.org/2000/svg" xmlns:xlink="http://www.w3.org/1999/xlink" x="0px" y="0px"
	 viewBox="0 0 500 500" style="enable-background:new 0 0 500 500;" xml:space="preserve">
<style type="text/css">
	.st0{fill:#FFFFFF;enable-background:new    ;}
	.st1{fill-rule:evenodd;clip-rule:evenodd;fill:#019493;}
</style>
<circle class="st0" cx="250" cy="210" r="152.9601593"/>
<g id="Layer_x0020_1_0">
	<path class="st1" d="M108.8788376,43.488575h288.0054321c6.8948059,0,13.1986084,3.6936378,16.6459961,9.65271
		l83.9195251,146.0219116c4.3338623,7.5842743,3.0534058,17.1384888-3.1519165,23.2945557l-230.975647,228.5132294
		c-7.4857635,7.3872681-19.5024109,7.3872681-26.9881897,0L5.7031546,222.7532501
		c-6.3530612-6.3038177-7.5350261-16.1042786-2.856415-23.737793L92.5283279,52.6980515
		c3.4966431-5.7128334,9.7019577-9.1602287,16.3505096-9.1602287V43.488575z M359.7016296,108.693634L359.7016296,108.693634
		v40.9747772h-82.0480652v28.4164124c57.6207886,3.0534058,100.8610229,15.5132904,101.1564941,30.4355927v31.1743317
		c-0.3447266,14.9715576-43.5357056,27.4314423-101.1564941,30.4355927v69.7359314h-54.4688721v-69.7359314
		c-57.6207886-3.0534058-100.8610001-15.5132904-101.1564941-30.4355927v-31.1743317
		c0.2954941-14.9223022,43.5357056-27.431427,101.1564941-30.4355927v-28.4164124h-82.0480652V108.693634H359.7016296z
		 M250.4191284,248.7072296L250.4191284,248.7072296c61.5114136,0,112.877655-10.5391846,125.4852905-24.6242676
		c-10.6869507-11.9181519-49.2485657-21.3246155-98.2508545-23.9347992v29.7461243
		c-8.7662354,0.4432373-17.8771973,0.6894836-27.234436,0.6894836c-9.3572235,0-18.4682007-0.2462463-27.234436-0.6894836
		v-29.7461243c-49.0022888,2.5609283-87.5639038,11.9674072-98.2508316,23.9347992
		C137.4922333,238.168045,188.9077148,248.7072296,250.4191284,248.7072296z"/>
</g>
</svg>
