<?xml version="1.0" encoding="utf-8"?>
<!-- Generator: Adobe Illustrator 25.0.0, SVG Export Plug-In . SVG Version: 6.00 Build 0)  -->
<svg version="1.1" id="Layer_1" xmlns:svgjs="http://svgjs.com/svgjs"
	 xmlns="http://www.w3.org/2000/svg" xmlns:xlink="http://www.w3.org/1999/xlink" x="0px" y="0px" viewBox="0 0 512 512"
	 style="enable-background:new 0 0 512 512;" xml:space="preserve">
<style type="text/css">
	.st0{fill:#170B6B;}
</style>
<g>
	<path class="st0" d="M266.1725769,467.8085632c-8.4723511,0-16.9447327-2.1180725-24.5705719-6.3542786L95.8771667,381.3903503
		c-17.7926941-9.7425232-28.806778-28.3817444-28.806778-49.1397705V179.7478485
		c0-20.7576752,11.0137329-39.3965454,28.806778-49.1397705l81.3347931-44.9035873
		c4.2361908-2.1180878,9.3189087-0.8466721,11.4369965,3.3895187c2.118103,4.2361832,0.8466797,9.3189011-3.3895111,11.4369965
		l-81.3347855,44.903595c-12.2838821,6.7775421-19.9093704,19.9093781-19.9093704,34.3127594v152.5027618
		c0,14.4033813,7.6258392,27.5352173,19.9093704,34.3127441l145.7248535,80.0639648
		c10.1672058,5.5077515,22.4524841,5.5077515,32.6179504,0l26.2636414-14.4034119
		c4.2362061-2.118103,9.3189087-0.8466797,11.4370117,3.3894958c2.118103,4.2362061,0.8466492,9.3189087-3.3895264,11.4369812
		l-26.2636719,14.4034119c-7.1997375,4.2361755-15.6721191,6.3542786-24.1445007,6.3542786L266.1725769,467.8085632z"/>
	<path class="st0" d="M165.7749634,151.7890015c-0.8466797,0-1.6947632,0-2.5414276-0.4233246
		c-4.6594543-1.2714233-6.7775574-5.931015-5.5077515-10.5904694l13.1318359-41.9382553l-41.0910187-13.1318283
		c-4.6594543-1.2714233-6.7775497-6.3542786-5.5077515-10.5904694c1.2714157-4.6608658,6.3542786-7.2022247,10.5904694-5.5077515
		L183.98909,85.2800903c4.2361908,1.2714233,6.7775421,5.931015,5.5077515,10.5904694l-15.6746063,49.9870148
		c-0.8466797,3.3895111-4.2361908,5.931015-8.047699,5.931015L165.7749634,151.7890015z"/>
	<path class="st0" d="M350.4727173,427.5647888c-2.9647522,0-5.9310303-1.6947327-7.6258545-4.2361755
		c-2.1180725-4.2361755-0.8466492-9.3188782,3.3895264-11.4369812l81.3347778-44.903595
		c12.2853088-6.7775269,19.9093628-19.9093628,19.9093628-34.3127441l0.0013733-152.9263763
		c0-14.4033813-7.6258545-27.535202-19.9093323-34.3127594l-145.301239-80.0639343
		c-10.1672058-5.5077515-22.4524841-5.5077515-32.6179199,0L223.38974,79.7756042
		c-4.2361755,2.1180954-9.3189087,0.8466721-11.4369965-3.3895111c-2.1208496-4.2361908-0.8494263-9.3189087,3.3867645-11.4369965
		l26.2636566-14.4033928c15.2499237-8.472374,33.4662323-8.472374,49.1397858,0l145.7248535,80.0639496
		c17.7926941,9.7425079,28.8067932,28.3817444,28.8067932,49.1397705v152.5027466
		c0,20.7576599-11.0137329,39.3965149-28.8067932,49.1397705l-81.7584229,44.9035645
		c-1.2714233,0.848053-2.5414124,1.2713928-4.2361755,1.2713928L350.4727173,427.5647888z"/>
	<path d="M399.6124878,443.2387085c-0.8466492,0-1.6947632,0-2.5414429-0.4233398l-49.1397705-15.6731873
		c-4.2361755-1.2713928-6.7775269-5.9310303-5.5077515-10.5904541l15.6731873-49.9869995
		c1.2714539-4.6594543,5.9310303-6.7775574,10.5904846-5.5077515c4.6594238,1.2714233,6.7775269,5.9310303,5.5077515,10.5904541
		l-13.1318359,41.9382629l41.0910339,13.1318054c4.6594543,1.2714233,6.7775269,6.3542786,5.5077515,10.5904846
		c-0.848053,3.3894958-4.2362061,5.9310303-8.0491333,5.9310303L399.6124878,443.2387085z"/>
	<path class="st0" d="M399.6124878,443.2387085c-0.8466492,0-1.6947632,0-2.5414429-0.4233398l-49.1397705-15.6731873
		c-4.2361755-1.2713928-6.7775269-5.9310303-5.5077515-10.5904541l15.6731873-49.9869995
		c1.2714539-4.6594543,5.9310303-6.7775574,10.5904846-5.5077515c4.6594238,1.2714233,6.7775269,5.9310303,5.5077515,10.5904541
		l-13.1318359,41.9382629l41.0910339,13.1318054c4.6594543,1.2714233,6.7775269,6.3542786,5.5077515,10.5904846
		c-0.848053,3.3894958-4.2362061,5.9310303-8.0491333,5.9310303L399.6124878,443.2387085z"/>
	<path class="st0" d="M333.9515991,216.6026764c-4.6594543,0-8.4723816-3.8129272-8.4723816-8.4723816
		s3.8129272-8.4723663,8.4723816-8.4723663h7.625824c9.743927,0,17.7912903-8.8956451,17.7912903-19.062851
		c0-10.1671906-8.0491333-18.2163086-17.7912903-18.6395721h-8.0491028v-8.0491028
		c-0.4233398-24.5705872-18.6395874-44.4799652-40.2438049-44.4799652c-14.8266296,0-28.3817444,9.3189011-35.5839539,24.1455688
		l-2.9647522,5.9309998l-6.3542786-1.2714081c-14.8266602-2.5414276-28.806778,5.931015-33.8895111,19.9093781l-2.1180878,5.931015
		l-6.3542786-0.8466797h-1.6947632c-9.743927,0-18.2163086,8.4723663-18.2163086,18.6395721
		c0,5.0827179,1.6947632,9.743927,5.5077515,13.1318359c3.3895111,3.3895111,3.3895111,8.8956299,0,11.8620148
		c-3.3895111,3.3895111-8.8956451,3.3895111-11.86203,0c-6.7775421-6.7775421-10.1672058-15.6731873-10.1672058-24.9938507
		c0-18.6395721,13.9801178-33.8894958,32.1946716-35.1610565c8.4723816-16.0982208,25.8403931-26.2636566,44.0563507-25.8403931
		c10.5904694-17.791275,28.3817596-28.381752,47.8689117-28.381752c28.8067627,0,52.9523315,23.7222977,56.7648926,53.7995834
		c15.249939,3.812912,26.6886902,17.791275,26.6886902,34.3127594c0,19.4861145-15.6731873,35.5839844-34.3127441,36.0075989
		L333.9515991,216.6026764z"/>
	<path class="st0" d="M267.8670654,415.2798462c-4.6594543,0-8.4723816-3.8129272-8.4723816-8.4723816v-26.6886902
		c0-4.6594238,3.8129272-8.4723816,8.4723816-8.4723816s8.4723816,3.8129578,8.4723816,8.4723816v26.6886902
		C276.339447,411.4669189,272.5265198,415.2798462,267.8670654,415.2798462z"/>
	<path class="st0" d="M279.7283936,387.7446289c-5.9310303,0-11.4370117-2.1180725-15.2499084-6.3542786
		c-4.6594543-5.0827026-6.3542786-11.86203-4.2361755-18.2163086c2.9647522-10.5904541,8.4723511-19.0628357,15.2499084-25.4171143
		c17.7912903-16.0982056,45.7507935-16.0982056,47.0216675-16.0982056c4.6594543,0,8.4723816,3.8129272,8.4723816,8.4723816
		c0,1.2714233,0,27.1119385-18.2163086,43.6327209c-7.2008057,6.3542786-16.0982056,11.0137024-27.5352173,13.5550842
		c-2.1166992,0.4247131-3.8114929,0.4247131-5.5063477,0.4247131V387.7446289z M312.3478394,339.4524841
		c-7.625824,1.2714233-18.2163086,4.2361755-25.8403625,11.0137329
		c-4.6594543,4.2361755-8.4723816,10.1672058-10.5904846,17.7912598c0,0.4233398-0.4233398,0.8466797,0.4233398,1.6947632
		c0.8466797,0.8466492,2.118103,1.6947632,4.2362061,0.8466492c8.4723511-2.1180725,15.2499084-5.5077209,20.3343811-9.743927
		c7.2008362-6.3514404,10.165802-14.823822,11.4370117-21.6027832L312.3478394,339.4524841z"/>
	<path class="st0" d="M258.9710693,402.5712891c-1.6947632,0-2.9647522,0-4.6594543-0.4233398
		c-8.4723663-2.118103-15.2499084-6.3542786-20.3343964-11.4370117
		c-13.1318207-13.5550842-13.1318207-34.7360229-13.1318207-35.5839539c0-4.6594543,3.812912-8.4723816,8.4723663-8.4723816
		c0.8466797,0,21.6042023,0,35.1610565,13.5551147c5.0827332,5.5077209,8.8956299,12.2853088,11.0137329,20.7576599
		c1.6947632,5.9310303,0,12.2853088-4.6594543,16.9447632c-2.9661255,2.9647522-7.2022095,4.6594238-11.8619995,4.6594238
		L258.9710693,402.5712891z M239.0602875,364.4456177c1.2714233,4.6594543,3.3895264,10.1672058,7.2008209,13.9801025
		c2.9647522,3.3895264,7.2008057,5.5077515,12.7085571,7.2008362v-0.4233398
		c-0.8466797-3.8129272-2.9647522-9.3189087-6.7775421-13.5551147c-3.8115082-3.8129272-8.4723663-5.9310303-13.1318207-7.2022095
		L239.0602875,364.4456177z"/>
	<path class="st0" d="M308.1108398,422.9049988h-77.0986023c-4.6594543,0-8.4723816-3.8129272-8.4723816-8.4723511
		c0-4.6594543,3.8129272-8.4723816,8.4723816-8.4723816h76.6749878c4.6594238,0,8.4723816,3.8129272,8.4723816,8.4723816
		c0.0013733,4.6594238-3.3881531,8.4723511-8.047699,8.4723511H308.1108398z"/>
	<path class="st0" d="M186.9558868,308.5279236c-22.8757629,0-41.0910034-18.6395874-41.0910034-41.0910034
		c0-22.8757782,18.6395721-41.0910339,41.0910034-41.0910339c12.7085724,0,24.1455688,5.5077362,32.1946716,15.2499084
		c2.9647827,3.8129272,2.5414276,8.8956299-1.2714081,11.86203c-3.8129272,2.9647522-8.8956451,2.5414276-11.86203-1.2714386
		c-4.6594543-5.931015-11.4369965-8.8956299-19.0628357-8.8956299c-13.5550995,0-24.1455688,11.0137329-24.1455688,24.1455841
		c0,13.1318054,11.0137329,24.1455383,24.1455688,24.1455383c6.3542786,0,12.7085571-2.5414124,16.9447479-7.2008057
		c3.3895111-3.3895264,8.4723663-3.3895264,11.8620148,0c3.3895111,3.3895264,3.3895111,8.4723816,0,11.86203
		c-7.2008057,8.047699-17.791275,12.2838745-28.8053589,12.2838745L186.9558868,308.5279236z"/>
	<path class="st0" d="M267.0198364,308.5279236c-22.0274658,0-39.8201599-17.7912598-39.8201599-39.8201599
		c0-22.0274506,17.7912903-39.8201447,39.8201599-39.8201447c22.0274658,0,39.8201599,17.7912903,39.8201599,39.8201447
		C306.8399963,290.73526,289.0487061,308.5279236,267.0198364,308.5279236z M267.0198364,245.8323517
		c-12.7085571,0-22.8757782,10.1672058-22.8757782,22.8757782c0,12.7085571,10.1672211,22.8757629,22.8757782,22.8757629
		s22.8757629-10.1672058,22.8757629-22.8757629C289.8955994,255.9995575,279.7283936,245.8323517,267.0198364,245.8323517z"/>
	<path class="st0" d="M369.535553,308.5279236h-45.750824c-4.6594543,0-8.4723816-3.8129272-8.4723816-8.4723511
		c0-15.249939,15.2499084-24.1455688,28.3817444-31.7714233c7.2008362-4.2361755,18.2163086-10.5904541,18.2163086-14.4033966
		c0-6.3542786-9.3189087-8.4723663-14.8266602-8.4723663c-5.0827026,0-14.8266602,1.6947479-14.8266602,8.8956299
		c0,4.6594543-3.8129272,8.4723816-8.4723511,8.4723816c-4.6594543,0-8.4723816-3.8129272-8.4723816-8.4723816
		c0.4233398-14.8266602,13.5550842-25.4171295,32.1946716-25.4171295c18.2163086,0,31.7713928,11.0137329,31.7713928,25.4171295
		c0,13.9801025-13.5550842,21.604187-26.6886902,29.2300415c-4.6594238,2.5414429-9.743927,5.5077515-13.5550842,8.4723816
		h30.9248657c4.6594543,0,8.4723816,3.8129272,8.4723816,8.4723816c-0.4233398,4.2361755-4.2362061,8.0491028-8.8956299,8.0491028
		H369.535553z"/>
</g>
</svg>
