<svg xmlns="http://www.w3.org/2000/svg" version="1.1" xmlns:xlink="http://www.w3.org/1999/xlink" xmlns:svgjs="http://svgjs.com/svgjs" width="512" height="512" x="0" y="0" viewBox="0 0 512 512" style="enable-background:new 0 0 512 512" xml:space="preserve" class=""><g transform="matrix(0.8,0,0,0.8,66.19999999999999,51.19999999999999)"><path d="M469.333 304.228V74.667C469.333 25.646 351.281 0 234.667 0S0 25.646 0 74.667v320c0 49.021 118.052 74.667 234.667 74.667 22.592 0 45.146-1.117 67.243-3.082C323.388 494.017 356.928 512 394.667 512 459.365 512 512 459.365 512 394.667c0-36.357-16.624-68.9-42.667-90.439zM234.667 21.333C364.896 21.333 448 52.917 448 74.667S364.896 128 234.667 128 21.333 96.417 21.333 74.667s83.105-53.334 213.334-53.334zM21.333 107.682c39.161 27.44 126.6 41.651 213.333 41.651S408.839 135.122 448 107.682v73.651c0 21.75-83.104 53.333-213.333 53.333S21.333 203.083 21.333 181.333v-73.651zM234.667 448c-130.229 0-213.333-31.583-213.333-53.333v-73.651c39.161 27.44 126.6 41.651 213.333 41.651 16.152 0 32.017-.645 47.629-1.604-3.193 10.656-4.962 21.923-4.962 33.604 0 18.342 4.35 35.647 11.887 51.125-18.024 1.329-36.248 2.208-54.554 2.208zm0-106.667c-130.229 0-213.333-31.583-213.333-53.333v-73.651C60.495 241.789 147.934 256 234.667 256S408.839 241.789 448 214.349v75.938c-16.023-8.22-34.121-12.953-53.333-12.953-44.617 0-83.482 25.04-103.319 61.799-18.404 1.396-37.381 2.2-56.681 2.2zm160 149.334c-52.938 0-96-43.063-96-96s43.063-96 96-96 96 43.063 96 96-43.063 96-96 96z" fill="#170b6b" data-original="#000000" class=""></path><path d="m440.458 355.125-67.125 67.125-24.458-24.458c-4.167-4.167-10.917-4.167-15.083 0-4.167 4.167-4.167 10.917 0 15.083l32 32a10.634 10.634 0 0 0 7.542 3.125c2.729 0 5.458-1.042 7.542-3.125l74.667-74.667c4.167-4.167 4.167-10.917 0-15.083-4.168-4.167-10.918-4.167-15.085 0z" fill="#170b6b" data-original="#000000" class=""></path></g></svg>