<svg xmlns="http://www.w3.org/2000/svg" version="1.1" xmlns:xlink="http://www.w3.org/1999/xlink" xmlns:svgjs="http://svgjs.com/svgjs" width="512" height="512" x="0" y="0" viewBox="0 0 682.667 682.667" style="enable-background:new 0 0 512 512" xml:space="preserve" class=""><g transform="matrix(0.9299999999999998,0,0,0.9299999999999998,23.89332015991215,23.89341435432442)"><defs><clipPath id="a" clipPathUnits="userSpaceOnUse"><path d="M0 512h512V0H0Z" fill="#170b6b" data-original="#000000" class=""></path></clipPath></defs><g clip-path="url(#a)" transform="matrix(1.33333 0 0 -1.33333 0 682.667)"><path d="M0 0c0-55.076-44.647-99.723-99.724-99.723-55.075 0-99.723 44.647-99.723 99.723s44.648 99.724 99.723 99.724C-44.647 99.724 0 55.076 0 0Z" style="stroke-width:20;stroke-linecap:round;stroke-linejoin:round;stroke-miterlimit:10;stroke-dasharray:none;stroke-opacity:1" transform="translate(355.724 316.291)" fill="none" stroke="#170b6b" stroke-width="20" stroke-linecap="round" stroke-linejoin="round" stroke-miterlimit="10" stroke-dasharray="none" stroke-opacity="" data-original="#000000" class=""></path><path d="M0 0c-4.432 6.314-15.575 11.008-30.139 6.62-13.373-4.028-19.366-25.429-1.924-33.654 2.738-1.29 9.751-4.046 20.333-7.786 23.683-8.372 24.461-39.476-3.647-41.931-9.366-.819-22.722 1.699-29.829 10.522" style="stroke-width:20;stroke-linecap:round;stroke-linejoin:round;stroke-miterlimit:10;stroke-dasharray:none;stroke-opacity:1" transform="translate(275.661 350.05)" fill="none" stroke="#170b6b" stroke-width="20" stroke-linecap="round" stroke-linejoin="round" stroke-miterlimit="10" stroke-dasharray="none" stroke-opacity="" data-original="#000000" class=""></path><path d="M0 0v-102.441" style="stroke-width:20;stroke-linecap:round;stroke-linejoin:round;stroke-miterlimit:10;stroke-dasharray:none;stroke-opacity:1" transform="translate(254.843 367.512)" fill="none" stroke="#170b6b" stroke-width="20" stroke-linecap="round" stroke-linejoin="round" stroke-miterlimit="10" stroke-dasharray="none" stroke-opacity="" data-original="#000000" class=""></path><path d="M0 0h-194.694c-27.947 0-50.602 22.655-50.602 50.603v390.794c0 27.948 22.655 50.603 50.602 50.603H0c27.947 0 50.603-22.655 50.603-50.603V50.603C50.603 22.655 27.947 0 0 0Z" style="stroke-width:20;stroke-linecap:round;stroke-linejoin:round;stroke-miterlimit:10;stroke-dasharray:none;stroke-opacity:1" transform="translate(353.347 10)" fill="none" stroke="#170b6b" stroke-width="20" stroke-linecap="round" stroke-linejoin="round" stroke-miterlimit="10" stroke-dasharray="none" stroke-opacity="" data-original="#000000" class=""></path><path d="M0 0h285.574" style="stroke-width:20;stroke-linecap:round;stroke-linejoin:round;stroke-miterlimit:10;stroke-dasharray:none;stroke-opacity:1" transform="translate(113.213 80.022)" fill="none" stroke="#170b6b" stroke-width="20" stroke-linecap="round" stroke-linejoin="round" stroke-miterlimit="10" stroke-dasharray="none" stroke-opacity="" data-original="#000000" class=""></path><path d="M0 0h25.532" style="stroke-width:20;stroke-linecap:round;stroke-linejoin:round;stroke-miterlimit:10;stroke-dasharray:none;stroke-opacity:1" transform="translate(243.234 45.17)" fill="none" stroke="#170b6b" stroke-width="20" stroke-linecap="round" stroke-linejoin="round" stroke-miterlimit="10" stroke-dasharray="none" stroke-opacity="" data-original="#000000" class=""></path><path d="M0 0h174.596" style="stroke-width:20;stroke-linecap:round;stroke-linejoin:round;stroke-miterlimit:10;stroke-dasharray:none;stroke-opacity:1" transform="translate(168.702 460.064)" fill="none" stroke="#170b6b" stroke-width="20" stroke-linecap="round" stroke-linejoin="round" stroke-miterlimit="10" stroke-dasharray="none" stroke-opacity="" data-original="#000000" class=""></path><path d="M0 0h-25.606l-20-40.596h179.851L114.245 0H88.639" style="stroke-width:20;stroke-linecap:round;stroke-linejoin:round;stroke-miterlimit:10;stroke-dasharray:none;stroke-opacity:1" transform="translate(211.68 181.128)" fill="none" stroke="#170b6b" stroke-width="20" stroke-linecap="round" stroke-linejoin="round" stroke-miterlimit="10" stroke-dasharray="none" stroke-opacity="" data-original="#000000" class=""></path></g></g></svg>