<svg xmlns="http://www.w3.org/2000/svg" version="1.1" xmlns:xlink="http://www.w3.org/1999/xlink" xmlns:svgjs="http://svgjs.com/svgjs" width="512" height="512" x="0" y="0" viewBox="0 0 64 64" style="enable-background:new 0 0 512 512" xml:space="preserve" class=""><g transform="matrix(0.88,0,0,0.8799999999999999,3.84,3.8380876922607463)"><path d="M57 26H33v-6.68a13.12 13.12 0 0 0 4.94 1.05 8.93 8.93 0 0 0 4.53-1.17c4.77-2.76 4.93-8.92 4.93-9.18a1 1 0 0 0-.51-.89c-.23-.13-5.65-3.08-10.42-.33a9.59 9.59 0 0 0-4.14 5.2 14.46 14.46 0 0 0-4.2-9.8c-6-6-14.07-3.89-14.4-3.8a1 1 0 0 0-.71.71c-.09.34-2.2 8.4 3.8 14.4a14.66 14.66 0 0 0 10.6 4.23 16 16 0 0 0 3.58-.35V26H7a1 1 0 0 0-1 1v10a1 1 0 0 0 1 1h2v25a1 1 0 0 0 1 1h44a1 1 0 0 0 1-1V38h2a1 1 0 0 0 1-1V27a1 1 0 0 0-1-1ZM37.47 10.54c3-1.74 6.53-.52 7.88.07-.16 1.46-.86 5.12-3.88 6.85a8.35 8.35 0 0 1-6.66.38l6.9-4a1 1 0 0 0-1-1.74l-6.89 4a8.36 8.36 0 0 1 3.65-5.56Zm-19.24 3.59c-4.31-4.31-3.72-10.06-3.4-11.89 1.83-.33 7.56-.93 11.89 3.4a13.28 13.28 0 0 1 3.56 10.63l-9.93-9.92a1 1 0 0 0-1.41 1.41l9.92 9.93a13.25 13.25 0 0 1-10.63-3.56ZM37 28v8H27v-8ZM8 28h17v8H8Zm3 10h16v24H11Zm18 24V38h6v24Zm24 0H37V38h16Zm3-26H39v-8h17Z" data-name="24-eco gift" fill="#170b6b" data-original="#000000" class=""></path></g></svg>