<?xml version="1.0" encoding="utf-8"?>
<!-- Generator: Adobe Illustrator 25.0.0, SVG Export Plug-In . SVG Version: 6.00 Build 0)  -->
<svg version="1.1" id="Layer_1" xmlns="http://www.w3.org/2000/svg" xmlns:xlink="http://www.w3.org/1999/xlink" x="0px" y="0px"
	 viewBox="0 0 214 430" style="enable-background:new 0 0 214 430;" xml:space="preserve">
<style type="text/css">
	.st0{filter:url(#Adobe_OpacityMaskFilter);}
	.st1{fill:#FFFFFF;}
	.st2{mask:url(#SVGID_1_);}
	.st3{fill:#5F475E;}
	.st4{fill:#717070;}
	.st5{fill:#1D1D1B;}
	.st6{fill:url(#SVGID_2_);}
	.st7{fill:url(#SVGID_3_);}
	.st8{fill:url(#SVGID_4_);}
	.st9{fill:url(#SVGID_5_);}
	.st10{fill:url(#SVGID_6_);}
	.st11{fill:url(#SVGID_7_);}
	.st12{fill:url(#SVGID_8_);}
	.st13{fill:url(#SVGID_9_);}
	.st14{fill:url(#SVGID_10_);}
	.st15{fill:url(#SVGID_11_);}
	.st16{fill:url(#SVGID_12_);}
	.st17{fill:url(#SVGID_13_);}
	.st18{fill:url(#SVGID_14_);}
	.st19{fill:url(#SVGID_15_);}
	.st20{fill:url(#SVGID_16_);}
	.st21{fill:url(#SVGID_17_);}
</style>
<g>
	<defs>
		
			<filter id="Adobe_OpacityMaskFilter" filterUnits="userSpaceOnUse" x="0.4805527" y="0.1968" width="213.0388947" height="429.6064148">
			
				<feColorMatrix  type="matrix" values="-1 0 0 0 1  0 -1 0 0 1  0 0 -1 0 1  0 0 0 1 0" color-interpolation-filters="sRGB" result="source"/>
			<feFlood  style="flood-color:white;flood-opacity:1" result="back"/>
			<feBlend  in="source" in2="back" mode="normal"/>
		</filter>
	</defs>
	<mask maskUnits="userSpaceOnUse" x="0.4805527" y="0.1968" width="213.0388947" height="429.6064148" id="SVGID_1_">
		<g class="st0">
			<path class="st1" d="M161.0757446,10.3231001h16.349411c13.2850952,0,24.0548859,10.7697992,24.0548859,24.0548973v361.2440186
				c0,13.2851868-10.7697906,24.0549011-24.0548859,24.0549011H36.5361519
				c-13.285099,0-24.0548992-10.7697144-24.0548992-24.0549011V34.3779984c0-13.285099,10.7694035-24.0548973,24.0545979-24.0548973
				c5.274601,0,10.5730019,0,16.1562004,0H161.0757446z"/>
		</g>
	</mask>
	<g class="st2">
		<path class="st3" d="M178.1120453,429.8031921H35.8492508c-18.5394993,0-33.5686989-15.0292053-33.5686989-33.5686035V33.7654991
			c0-18.5394993,15.0291986-33.5686989,33.5686989-33.5686989h142.2627869
			c18.5393982,0,33.5686035,15.0291996,33.5686035,33.5686989v362.4690857
			C211.6806488,414.7739868,196.6514435,429.8031921,178.1120453,429.8031921z"/>
		<path class="st4" d="M177.8487549,1.1968H36.1125526c-18.1326008,0-32.8320007,14.6993999-32.8320007,32.8320007v361.9425049
			c0,18.1324768,14.699399,32.8318787,32.8320007,32.8318787h141.7362061c18.1325989,0,32.8318939-14.6994019,32.8318939-32.8318787
			V34.028801C210.6806488,15.8962002,195.9813538,1.1968,177.8487549,1.1968z M209.6806488,395.7080078
			c0,17.7256775-14.3695068,32.0951843-32.0951996,32.0951843H36.3758507
			c-17.7256985,0-32.0952988-14.3695068-32.0952988-32.0951843V34.292099c0-17.7256985,14.3696003-32.0952988,32.0952988-32.0952988
			h141.2095947c17.7256927,0,32.0951996,14.3696003,32.0951996,32.0952988V395.7080078z"/>
		<path class="st5" d="M177.2686615,426.5239868H36.6926575c-17.0470009,0-30.8663044-13.8192749-30.8663044-30.866272V34.3423004
			c0-17.0468998,13.8193035-30.8661995,30.8663044-30.8661995h140.576004c17.0469971,0,30.8661804,13.8193007,30.8661804,30.8661995
			v361.3154297C208.1348419,412.7047119,194.3156586,426.5239868,177.2686615,426.5239868z"/>
		<g>
			<g>
				
					<linearGradient id="SVGID_2_" gradientUnits="userSpaceOnUse" x1="-467.3383789" y1="423.4389954" x2="-415.5600891" y2="423.4389954" gradientTransform="matrix(0 1 -1 0 635.732605 577.2998047)">
					<stop  offset="0" style="stop-color:#695A60"/>
					<stop  offset="0.0185053" style="stop-color:#896E80"/>
					<stop  offset="0.0381953" style="stop-color:#5F3C5C"/>
					<stop  offset="0.0820552" style="stop-color:#2B1D2A"/>
					<stop  offset="0.105304" style="stop-color:#704B6A"/>
					<stop  offset="0.904875" style="stop-color:#625161"/>
					<stop  offset="0.939094" style="stop-color:#2B1D2A"/>
					<stop  offset="0.96458" style="stop-color:#5F3C5C"/>
					<stop  offset="0.98292" style="stop-color:#855776"/>
					<stop  offset="1" style="stop-color:#5C4B5D"/>
				</linearGradient>
				<rect x="211.6806488" y="109.9614029" class="st6" width="1.225891" height="51.7783012"/>
				
					<linearGradient id="SVGID_3_" gradientUnits="userSpaceOnUse" x1="-467.3249817" y1="422.5195923" x2="-415.5576782" y2="422.5195923" gradientTransform="matrix(0 1 -1 0 635.732605 577.2998047)">
					<stop  offset="0" style="stop-color:#686168"/>
					<stop  offset="0.0640242" style="stop-color:#664F63"/>
					<stop  offset="0.186012" style="stop-color:#797078"/>
					<stop  offset="0.806376" style="stop-color:#797078"/>
					<stop  offset="0.919115" style="stop-color:#664F63"/>
					<stop  offset="1" style="stop-color:#686168"/>
				</linearGradient>
				<path class="st7" d="M212.9065399,161.7420959v-51.7672958l0.6128998,0.6720963
					c-0.3099976,5.512207-0.2884979,44.9235992,0,50.4230042L212.9065399,161.7420959z"/>
			</g>
			<g>
				
					<linearGradient id="SVGID_4_" gradientUnits="userSpaceOnUse" x1="-478.2373962" y1="876.2797241" x2="-445.4373779" y2="876.2797241" gradientTransform="matrix(0 1 1 0 -875.0991821 577.2998047)">
					<stop  offset="0" style="stop-color:#695A60"/>
					<stop  offset="0.0185053" style="stop-color:#896E80"/>
					<stop  offset="0.0381953" style="stop-color:#5F3C5C"/>
					<stop  offset="0.0820552" style="stop-color:#2D1E2C"/>
					<stop  offset="0.105304" style="stop-color:#704B6A"/>
					<stop  offset="0.904875" style="stop-color:#625161"/>
					<stop  offset="0.939094" style="stop-color:#2D1E2C"/>
					<stop  offset="0.96458" style="stop-color:#5F3C5C"/>
					<stop  offset="0.98292" style="stop-color:#855776"/>
					<stop  offset="1" style="stop-color:#5C4B5D"/>
				</linearGradient>
				<rect x="0.8305527" y="99.0624008" class="st8" width="0.7" height="32.7999992"/>
				
					<linearGradient id="SVGID_5_" gradientUnits="userSpaceOnUse" x1="-478.2288818" y1="875.7547607" x2="-445.4358826" y2="875.7547607" gradientTransform="matrix(0 1 1 0 -875.0991821 577.2998047)">
					<stop  offset="0" style="stop-color:#686168"/>
					<stop  offset="0.0640242" style="stop-color:#664F63"/>
					<stop  offset="0.186012" style="stop-color:#797078"/>
					<stop  offset="0.806376" style="stop-color:#797078"/>
					<stop  offset="0.919115" style="stop-color:#664F63"/>
					<stop  offset="1" style="stop-color:#686168"/>
				</linearGradient>
				<path class="st9" d="M0.8305527,131.8639069V99.0709l-0.35,0.4257965c0.177,3.491806,0.1647,28.4577026,0,31.9413986
					L0.8305527,131.8639069z"/>
				<linearGradient id="SVGID_6_" gradientUnits="userSpaceOnUse" x1="1.9055526" y1="131.8724976" x2="1.9055526" y2="99.0709">
					<stop  offset="0" style="stop-color:#695A60"/>
					<stop  offset="0.0530612" style="stop-color:#2D1E2C"/>
					<stop  offset="0.518367" style="stop-color:#5F3C5C"/>
					<stop  offset="0.96458" style="stop-color:#2D1E2C"/>
					<stop  offset="1" style="stop-color:#5C4B5D"/>
				</linearGradient>
				<rect x="1.5305526" y="99.0709" class="st10" width="0.75" height="32.8016014"/>
			</g>
			<g>
				
					<linearGradient id="SVGID_7_" gradientUnits="userSpaceOnUse" x1="-436.9713745" y1="876.2797241" x2="-404.1713867" y2="876.2797241" gradientTransform="matrix(0 1 1 0 -875.0991821 577.2998047)">
					<stop  offset="0" style="stop-color:#695A60"/>
					<stop  offset="0.0185053" style="stop-color:#896E80"/>
					<stop  offset="0.0381953" style="stop-color:#5F3C5C"/>
					<stop  offset="0.0820552" style="stop-color:#2D1E2C"/>
					<stop  offset="0.105304" style="stop-color:#704B6A"/>
					<stop  offset="0.904875" style="stop-color:#625161"/>
					<stop  offset="0.939094" style="stop-color:#2D1E2C"/>
					<stop  offset="0.96458" style="stop-color:#5F3C5C"/>
					<stop  offset="0.98292" style="stop-color:#855776"/>
					<stop  offset="1" style="stop-color:#5C4B5D"/>
				</linearGradient>
				<rect x="0.8305527" y="140.3283997" class="st11" width="0.7" height="32.7999992"/>
				
					<linearGradient id="SVGID_8_" gradientUnits="userSpaceOnUse" x1="-436.9628906" y1="875.7547607" x2="-404.1698914" y2="875.7547607" gradientTransform="matrix(0 1 1 0 -875.0991821 577.2998047)">
					<stop  offset="0" style="stop-color:#686168"/>
					<stop  offset="0.0640242" style="stop-color:#664F63"/>
					<stop  offset="0.186012" style="stop-color:#797078"/>
					<stop  offset="0.806376" style="stop-color:#797078"/>
					<stop  offset="0.919115" style="stop-color:#664F63"/>
					<stop  offset="1" style="stop-color:#686168"/>
				</linearGradient>
				<path class="st12" d="M0.8305527,173.1298981v-32.7929993l-0.35,0.4257965c0.177,3.491806,0.1647,28.4577026,0,31.9414062
					L0.8305527,173.1298981z"/>
				<linearGradient id="SVGID_9_" gradientUnits="userSpaceOnUse" x1="1.9055526" y1="173.138504" x2="1.9055526" y2="140.3368988">
					<stop  offset="0" style="stop-color:#695A60"/>
					<stop  offset="0.0530612" style="stop-color:#2D1E2C"/>
					<stop  offset="0.518367" style="stop-color:#5F3C5C"/>
					<stop  offset="0.96458" style="stop-color:#2D1E2C"/>
					<stop  offset="1" style="stop-color:#5C4B5D"/>
				</linearGradient>
				<rect x="1.5305526" y="140.3368988" class="st13" width="0.75" height="32.8016014"/>
			</g>
			<g>
				
					<linearGradient id="SVGID_10_" gradientUnits="userSpaceOnUse" x1="-509.2279968" y1="876.2797241" x2="-492.3924866" y2="876.2797241" gradientTransform="matrix(0 1 1 0 -875.0991821 577.2998047)">
					<stop  offset="0" style="stop-color:#695A60"/>
					<stop  offset="0.0185053" style="stop-color:#896E80"/>
					<stop  offset="0.0381953" style="stop-color:#5F3C5C"/>
					<stop  offset="0.0820552" style="stop-color:#2D1E2C"/>
					<stop  offset="0.105304" style="stop-color:#704B6A"/>
					<stop  offset="0.904875" style="stop-color:#625161"/>
					<stop  offset="0.939094" style="stop-color:#2D1E2C"/>
					<stop  offset="0.96458" style="stop-color:#5F3C5C"/>
					<stop  offset="0.98292" style="stop-color:#855776"/>
					<stop  offset="1" style="stop-color:#5C4B5D"/>
				</linearGradient>
				<rect x="0.8305527" y="68.0718002" class="st14" width="0.7" height="16.8355007"/>
				
					<linearGradient id="SVGID_11_" gradientUnits="userSpaceOnUse" x1="-509.2198792" y1="875.7547607" x2="-492.3909912" y2="875.7547607" gradientTransform="matrix(0 1 1 0 -875.0991821 577.2998047)">
					<stop  offset="0" style="stop-color:#686168"/>
					<stop  offset="0.0640242" style="stop-color:#664F63"/>
					<stop  offset="0.186012" style="stop-color:#797078"/>
					<stop  offset="0.806376" style="stop-color:#797078"/>
					<stop  offset="0.919115" style="stop-color:#664F63"/>
					<stop  offset="1" style="stop-color:#686168"/>
				</linearGradient>
				<path class="st15" d="M0.8305527,84.9087982V68.0799026l-0.35,0.4025955c0.177,3.3027039,0.1647,12.7285004,0,16.0233994
					L0.8305527,84.9087982z"/>
				<linearGradient id="SVGID_12_" gradientUnits="userSpaceOnUse" x1="1.9055526" y1="84.9168015" x2="1.9055526" y2="68.0799026">
					<stop  offset="0" style="stop-color:#695A60"/>
					<stop  offset="0.0530612" style="stop-color:#2D1E2C"/>
					<stop  offset="0.518367" style="stop-color:#5F3C5C"/>
					<stop  offset="0.96458" style="stop-color:#2D1E2C"/>
					<stop  offset="1" style="stop-color:#5C4B5D"/>
				</linearGradient>
				<rect x="1.5305526" y="68.0799026" class="st16" width="0.75" height="16.8369007"/>
			</g>
		</g>
	</g>
	<g>
		<path class="st5" d="M122.7979584,31.1615887H89.3473587c-3.7638016,0-6.8150024-3.0512009-6.8150024-6.8150005l0,0
			c0-3.7637997,3.0512009-6.8150005,6.8150024-6.8150005h33.4505997c3.7637939,0,6.8150024,3.0512009,6.8150024,6.8150005l0,0
			C129.6129608,28.1103878,126.5617523,31.1615887,122.7979584,31.1615887z"/>
		<g>
			
				<linearGradient id="SVGID_13_" gradientUnits="userSpaceOnUse" x1="120.9141541" y1="27.1380882" x2="120.9141541" y2="21.2768002">
				<stop  offset="0" style="stop-color:#676767"/>
				<stop  offset="1" style="stop-color:#050507"/>
			</linearGradient>
			<circle class="st17" cx="120.9141541" cy="24.3465881" r="2.9751"/>
			
				<image style="overflow:visible;" width="24" height="25" xlink:href="839BBF9.html"  transform="matrix(0.24 0 0 0.24 118.0800018 21.3600006)">
			</image>
			
				<linearGradient id="SVGID_14_" gradientUnits="userSpaceOnUse" x1="119.3475418" y1="-365.9380493" x2="119.3475418" y2="-369.2871399" gradientTransform="matrix(-1 0 0 -1 240.2617035 -343.1864929)">
				<stop  offset="0" style="stop-color:#10161E"/>
				<stop  offset="1" style="stop-color:#35413A"/>
			</linearGradient>
			<circle class="st18" cx="120.9141541" cy="24.3465881" r="1.6999999"/>
			<g id="Camera_00000181771962106803296260000008551096653390836141_">
				
					<linearGradient id="SVGID_15_" gradientUnits="userSpaceOnUse" x1="121.9649963" y1="25.3998318" x2="119.8598633" y2="23.2946949">
					<stop  offset="0" style="stop-color:#231F20"/>
					<stop  offset="0.0880825" style="stop-color:#252325"/>
					<stop  offset="0.207377" style="stop-color:#2C2C31"/>
					<stop  offset="0.3445635" style="stop-color:#353C45"/>
					<stop  offset="0.4950479" style="stop-color:#3F5265"/>
					<stop  offset="0.6544547" style="stop-color:#467195"/>
					<stop  offset="0.78469" style="stop-color:#3D90CE"/>
					<stop  offset="0.7887215" style="stop-color:#408AC3"/>
					<stop  offset="0.8295446" style="stop-color:#456887"/>
					<stop  offset="0.8693135" style="stop-color:#3D4D5D"/>
					<stop  offset="0.9071118" style="stop-color:#333941"/>
					<stop  offset="0.9424679" style="stop-color:#2B2B2F"/>
					<stop  offset="0.9744194" style="stop-color:#252224"/>
					<stop  offset="1" style="stop-color:#231F20"/>
				</linearGradient>
				<path class="st19" d="M122.400856,24.3481884c0,0.8218002-0.6660004,1.4867992-1.4882965,1.4867992
					c-0.8251038,0-1.486702-0.664999-1.486702-1.4867992c0-0.8246002,0.6615982-1.4883995,1.486702-1.4883995
					C121.7348557,22.8597889,122.400856,23.5235882,122.400856,24.3481884z"/>
				<radialGradient id="SVGID_16_" cx="120.913353" cy="24.3473892" r="1.48755" gradientUnits="userSpaceOnUse">
					<stop  offset="0" style="stop-color:#231F20"/>
					<stop  offset="0.167344" style="stop-color:#35434A"/>
					<stop  offset="0.359718" style="stop-color:#416B7F"/>
					<stop  offset="0.5249909" style="stop-color:#3F8CAE"/>
					<stop  offset="0.6545954" style="stop-color:#34A1D0"/>
					<stop  offset="0.732558" style="stop-color:#29ABE2"/>
					<stop  offset="0.7613333" style="stop-color:#34A0CF"/>
					<stop  offset="0.8106328" style="stop-color:#4089AB"/>
					<stop  offset="0.8744816" style="stop-color:#406679"/>
					<stop  offset="0.9496017" style="stop-color:#333C42"/>
					<stop  offset="1" style="stop-color:#231F20"/>
				</radialGradient>
				<path class="st20" d="M122.400856,24.3481884c0,0.8218002-0.6660004,1.4867992-1.4882965,1.4867992
					c-0.8251038,0-1.486702-0.664999-1.486702-1.4867992c0-0.8246002,0.6615982-1.4883995,1.486702-1.4883995
					C121.7348557,22.8597889,122.400856,23.5235882,122.400856,24.3481884z"/>
			</g>
			<radialGradient id="SVGID_17_" cx="121.7305069" cy="25.1234379" r="0.53125" gradientUnits="userSpaceOnUse">
				<stop  offset="0" style="stop-color:#CCCCCC"/>
				<stop  offset="0.0922827" style="stop-color:#A6A5A5"/>
				<stop  offset="0.2741104" style="stop-color:#6E6C6C"/>
				<stop  offset="0.4496922" style="stop-color:#484646"/>
				<stop  offset="0.6144469" style="stop-color:#2D2D2C"/>
				<stop  offset="0.7658122" style="stop-color:#191919"/>
				<stop  offset="0.8990449" style="stop-color:#080808"/>
				<stop  offset="1" style="stop-color:#010101"/>
			</radialGradient>
			<path class="st21" d="M122.2617569,25.1233883c0-0.2933998-0.2378998-0.5312004-0.5313034-0.5312004
				c-0.293396,0-0.5311966,0.2378006-0.5311966,0.5312004s0.2378006,0.5312996,0.5311966,0.5312996
				C122.0238571,25.6546879,122.2617569,25.4167881,122.2617569,25.1233883z"/>
		</g>
	</g>
</g>
</svg>
