<svg xmlns="http://www.w3.org/2000/svg" version="1.1" xmlns:xlink="http://www.w3.org/1999/xlink" xmlns:svgjs="http://svgjs.com/svgjs" width="512" height="512" x="0" y="0" viewBox="0 0 25.4 25.4" style="enable-background:new 0 0 512 512" xml:space="preserve" class=""><g transform="matrix(0.92,0,0,0.9199999999999999,1.0175999641418478,1.01755988121033)"><path d="M12.719 1.59c-1.027 0-1.83.788-2.506 1.815C9.538 4.432 8.96 5.78 8.47 7.212a35.179 35.179 0 0 0-.927 3.243 10 10 0 0 0-.454-.994c-.218-.403-.45-.751-.732-1.024-.281-.274-.639-.487-1.057-.487-.389 0-.727.186-.996.43-.27.242-.493.553-.7.913-.416.718-.765 1.641-1.06 2.615-.59 1.947-.954 4.03-.954 5.052a3.717 3.717 0 0 0 3.179 3.668v2.161H2.121c-.692.016-.692 1.045 0 1.06H23.32c.691-.015.691-1.044 0-1.06h-2.651v-2.161a3.717 3.717 0 0 0 3.181-3.668c0-1.021-.364-3.105-.954-5.052-.295-.974-.644-1.897-1.06-2.615-.207-.36-.43-.67-.7-.914-.269-.243-.607-.429-.996-.429-.418 0-.776.213-1.057.487-.281.273-.514.621-.732 1.024-.162.3-.311.64-.454.993a35.182 35.182 0 0 0-.927-3.242c-.489-1.433-1.07-2.78-1.745-3.807-.675-1.027-1.479-1.815-2.506-1.815zm0 1.06c.436 0 1.03.436 1.622 1.336.593.901 1.155 2.186 1.626 3.567.941 2.761 1.524 5.966 1.524 7.286a4.763 4.763 0 0 1-4.242 4.741v-1.339l1.436-1.436a.53.53 0 1 0-.75-.749l-.686.686V15.06l1.436-1.435a.53.53 0 1 0-.75-.75l-.686.687V11.66a.53.53 0 1 0-1.06 0v1.899l-.685-.685a.53.53 0 1 0-.749.75l1.434 1.433v1.682l-.685-.684a.53.53 0 1 0-.749.75l1.434 1.433v1.341a4.76 4.76 0 0 1-4.239-4.74c0-1.32.582-4.526 1.524-7.287.47-1.381 1.033-2.666 1.625-3.567.593-.9 1.184-1.335 1.62-1.335zM5.3 9.01c.054 0 .157.03.318.187.162.157.353.424.538.767.355.658.692 1.587.97 2.555-.153.922-.237 1.728-.237 2.32 0 1.128.324 2.181.88 3.075a2.648 2.648 0 0 1-1.94 1.642V17.49a.53.53 0 1 0-1.06 0v2.067A2.64 2.64 0 0 1 2.65 16.96c0-.735.348-2.891.909-4.745.28-.927.617-1.795.962-2.391.173-.299.349-.527.494-.659.145-.131.235-.155.285-.155zm14.84 0c.05 0 .14.024.285.155.145.132.321.36.494.659.345.596.681 1.464.962 2.39.561 1.855.909 4.011.909 4.746a2.64 2.64 0 0 1-2.121 2.597V17.49a.53.53 0 1 0-1.058 0v2.066a2.648 2.648 0 0 1-1.94-1.642c.556-.894.88-1.947.88-3.075 0-.593-.084-1.399-.236-2.32.278-.969.614-1.897.969-2.555.185-.343.376-.61.538-.767.161-.157.264-.187.318-.187zm-3.191 9.836a3.714 3.714 0 0 0 2.662 1.786v2.157h-6.362v-2.144a5.821 5.821 0 0 0 3.7-1.799zm-8.458 0a5.817 5.817 0 0 0 3.698 1.8v2.143h-6.36v-2.158a3.713 3.713 0 0 0 2.662-1.784z" paint-order="stroke fill markers" fill="#170b6b" data-original="#000000" class=""></path></g></svg>