<svg xmlns="http://www.w3.org/2000/svg" version="1.1" xmlns:xlink="http://www.w3.org/1999/xlink" xmlns:svgjs="http://svgjs.com/svgjs" width="512" height="512" x="0" y="0" viewBox="0 0 512.011 512.011" style="enable-background:new 0 0 512 512" xml:space="preserve" class=""><g transform="matrix(0.8800000000000001,0,0,0.8800000000000001,30.720598297119068,30.720615234374947)"><path d="M243.452 126.215c.547-.658 5.451-10.523 12.554-10.521 3.808 0 7.875 3.02 11.158 8.286l18.791 30.134-10.364-2.454c-5.373-1.268-10.763 2.054-12.035 7.428-1.271 5.375 2.054 10.763 7.428 12.035l34.013 8.051c5.41 1.276 10.787-2.091 12.041-7.455l7.957-34.038c1.258-5.378-2.083-10.757-7.461-12.014-5.376-1.257-10.757 2.083-12.014 7.461l-2.476 10.59-18.909-30.32c-14.696-23.572-41.525-23.627-56.259 0l-1.395 2.236c-2.923 4.686-1.492 10.854 3.194 13.776 4.686 2.921 10.855 1.491 13.777-3.195zM281.444 267.366c3.899-3.911 3.891-10.242-.02-14.143l-7.552-7.53h37.613c28.3 0 40.914-22.827 25.968-46.8l-.442-.709c-2.924-4.686-9.091-6.113-13.778-3.191-4.685 2.924-6.113 9.093-3.19 13.778.076.172 5.696 8.229 3.15 12.813-1.427 2.572-5.804 4.107-11.707 4.107H273.73l7.693-7.673c3.911-3.899 3.92-10.231.02-14.142-3.899-3.912-10.232-3.921-14.142-.021L242.55 228.54c-3.917 3.905-3.918 10.255-.001 14.162l24.752 24.684c3.905 3.893 10.236 3.896 14.143-.02zM223.502 152.648c-1.258-5.384-6.657-8.73-12.04-7.455l-34.016 8.051c-5.374 1.272-8.699 6.66-7.428 12.034 1.272 5.375 6.662 8.697 12.035 7.429l10.364-2.453-17.862 28.644c-14.975 24.013-2.276 46.795 25.967 46.795h9.018c5.522 0 10-4.478 10-10 0-5.523-4.478-10-10-10h-9.018c-5.903 0-10.279-1.535-11.706-4.105-1.427-2.572-.414-7.098 2.71-12.107l17.981-28.834 2.477 10.594c1.078 4.612 5.188 7.726 9.729 7.726 6.44 0 11.215-5.999 9.746-12.278z" fill="#170b6b" data-original="#000000" class=""></path><path d="M391.003 184.998C391.003 110.56 330.444 50 256.005 50s-134.998 60.56-134.998 134.998 60.56 134.998 134.998 134.998 134.998-60.56 134.998-134.998zm-249.996 0C141.007 121.588 192.595 70 256.005 70s114.998 51.588 114.998 114.998-51.588 114.998-114.998 114.998-114.998-51.588-114.998-114.998z" fill="#170b6b" data-original="#000000" class=""></path><path d="M332.629 395.596C380.105 340.846 446.005 253.417 446.005 190c0-104.767-85.233-190-190-190s-190 85.233-190 190c0 63.417 65.9 150.846 113.376 205.596C130.65 400.402 41.005 414.373 41.005 452c0 18.952 22.769 34.115 67.673 45.068 81.651 19.917 212.955 19.929 294.654 0 44.904-10.953 67.673-26.116 67.673-45.068 0-37.627-89.644-51.598-138.376-56.404zM256.005 20c93.738 0 170 76.262 170 170 0 76.695-114.803 203.65-170 258.052-54.805-54.028-170-181.196-170-258.052 0-93.738 76.262-170 170-170zm142.588 457.639c-78.566 19.162-206.593 19.166-285.176 0C70.421 467.15 61.005 455.575 61.005 452c0-3.342 7.376-12.005 35.292-20.877 25.018-7.951 60.244-13.921 99.612-16.906 21.867 24.113 45.8 48.086 53.216 55.041a10.002 10.002 0 0 0 13.76 0c8.229-7.698 31.966-31.607 53.216-55.041 39.368 2.985 74.594 8.955 99.612 16.906 27.916 8.872 35.292 17.535 35.292 20.877 0 3.575-9.416 15.15-52.412 25.639z" fill="#170b6b" data-original="#000000" class=""></path></g></svg>