<?xml version="1.0" encoding="utf-8"?>
<!-- Generator: Adobe Illustrator 25.0.0, SVG Export Plug-In . SVG Version: 6.00 Build 0)  -->
<svg version="1.1" id="Layer_1" xmlns:svgjs="http://svgjs.com/svgjs"
	 xmlns="http://www.w3.org/2000/svg" xmlns:xlink="http://www.w3.org/1999/xlink" x="0px" y="0px" viewBox="0 0 512 512"
	 style="enable-background:new 0 0 512 512;" xml:space="preserve">
<style type="text/css">
	.st0{fill:#170B6B;}
</style>
<path class="st0" d="M333.7590332,302.4262085c-8.1240234,13.3458862-23.793396,20.8908691-44.1018982,20.8908691h-11.605011
	l4.6429443,4.6429443c3.4812012,3.4811707,3.4812012,8.7028809,0,12.188385
	c-1.7406006,1.7406006-4.0640869,2.319458-6.3835144,2.319458c-2.319458,0-4.6429443-0.5788269-6.3835144-2.319458
	l-19.1499786-19.1499634c-0.5788574-0.5788574-1.7405853-1.7406006-1.7405853-2.9023438
	c-0.5788422-1.1617432-0.5788422-2.319458-0.5788422-2.9023743c0-0.5788269,0-2.319458,0.5788422-2.9023438
	c0.5788422-1.1617432,1.1617279-2.319458,1.7405853-2.9023438l19.1499786-19.1499939
	c3.4812012-3.4811707,8.7028809-3.4811707,12.1884155,0c3.4811707,3.4812012,3.4811707,8.7028809,0,12.1884155l-4.6429443,4.6429443
	h11.605011c14.5075378,0,24.3726807-4.6429443,29.0151062-12.1884155
	c4.6429138-8.1240234,3.4811707-19.1499634-4.0640869-31.3342285c-2.319458-4.0640869-1.1617432-9.2857819,2.9023438-11.6050262
	c4.0640869-2.3192291,9.2857666-1.1617279,11.605011,2.902359c11.605011,16.8266907,13.3458862,34.2367859,5.2217712,47.5827026
	L333.7590332,302.4262085z M282.1121826,205.5157776l4.6429138,7.545166l-4.6429138-1.7405853
	c-4.6429443-1.1617432-9.2857971,1.1617279-11.0267639,5.804657c-1.1617432,4.6429443,1.1617126,9.2857819,5.804657,11.0267944
	l26.1125488,8.1240082c0.5788574,0,1.7406006,0.5788422,2.319458,0.5788422h0.5788574h1.7405701h0.5788574
	c0.5788574,0,0.5788574,0,1.1617432-0.5788422c0.5788269-0.5788422,1.7405701-1.1617279,2.319458-1.7405701
	c0.5788574-0.5788574,1.1617432-1.7405853,1.7405701-2.902359l8.124054-26.1125641
	c1.1617126-4.6429291-1.1617432-9.2857666-5.8046875-11.0267792c-4.6429443-1.1617279-9.2857666,1.1617432-11.0267639,5.8046722
	l-2.319458,6.9623718l-5.804657-9.8646088c-10.4433899-17.988327-24.9509277-27.8534546-40.6201172-27.8534546
	s-30.1767426,9.8646088-40.6201172,27.8534546c-2.319458,4.0640869-1.1617279,9.2857666,2.902359,11.605011
	c4.0640869,2.3192291,9.2857666,1.1617279,11.605011-2.9023438c6.9623871-12.1884003,16.2484436-19.1499634,25.534317-19.1499634
	c10.4516296-0.5828857,19.1582642,6.3793945,26.7001038,18.5675964V205.5157776z M223.5027161,306.4862671
	c-14.5075531,0-24.3726807-4.6429138-29.0151062-12.1884155c-4.6429291-8.1240234-3.4811859-19.1499634,4.0640869-31.3342285
	l6.9624023-12.7666473l2.319458,6.9623871c1.1617279,3.4812012,4.6429291,5.804657,8.1240387,5.804657
	c0.5788422,0,1.7405701,0,2.9023438-0.5788269c4.6429291-1.1617432,6.9623871-6.3835144,5.8046722-11.0267639l-8.1240387-26.1125641
	v-0.5788422c0-0.5788422,0-0.5788422-0.5788422-0.5788422c0,0,0-0.5788574-0.5788422-0.5788574l-2.8942566-2.8942566
	c-0.5788422,0-0.5788422-0.5788422-1.1617432-0.5788422h-0.5788422h-1.1617279h-0.5788574h-1.1617279h-0.5788422h-1.1617432
	h-0.5788422l-26.1125641,8.1240234c-4.6429291,1.1617432-6.9623871,6.3835297-5.8046722,11.0267792
	c1.1617432,4.6429291,6.3835144,6.9623871,11.0267639,5.8046722l4.6429443-1.7405853l-5.8046722,10.4433746
	c-10.4433746,17.9883423-11.605011,35.398407-4.0640869,48.7443237
	c8.1240234,13.3459167,23.7934113,20.8908691,44.1018982,20.8908691c4.6429291,0,8.7028809-4.0640869,8.7028809-8.7028809
	c-0.0081024-4.6590881-3.4892578-8.1402893-8.7109375-8.1402893L223.5027161,306.4862671z M395.2720947,139.9395905v319.1660767
	c0,3.4812012-1.7406006,6.3835449-5.2217712,8.124054c-1.1617432,0.5788269-2.319458,0.5788269-3.4812012,0.5788269
	c-2.319458,0-4.0640869-0.5788269-5.8046875-2.319458l-20.3084717-17.9883118l-20.3126526,17.9883118
	c-3.4811707,2.9023743-8.1240234,2.9023743-11.605011,0l-20.3126221-17.9883118l-20.3126221,17.9883118
	c-3.4812012,2.9023743-8.124054,2.9023743-11.605011,0l-20.3085022-17.9883118l-20.3126221,17.9883118
	c-3.4812012,2.9023743-8.1240387,2.9023743-11.605011,0l-20.3084869-17.9883118l-20.3126373,17.9883118
	c-3.4812012,2.9023743-8.1240387,2.9023743-11.605011,0l-20.3126373-17.9883118l-20.3126526,17.9883118
	c-2.3194427,2.319458-6.3835297,2.9023743-9.2857742,1.1617432c-3.47715-1.1617432-5.2177429-4.0640869-5.2177429-7.545166
	V52.8942947c0-4.6429329,4.0640869-8.7028732,8.7028732-8.7028732h174.0906067h1.7406006
	c0.5788269,0,0.5788269,0,1.1617432,0.578846h0.5788269c0.5788574,0,0.5788574,0.578846,1.1617432,0.578846h0.5788574
	c0.5788269,0.578846,1.1617126,0.578846,1.1617126,1.1617432l43.5226746,43.5226517
	c24.9508972,24.9509201,35.9776611,35.9776993,41.2034912,41.7817383c2.319458,1.1617279,4.0640869,3.4812012,4.6429443,6.3835297
	c-0.0040588,0.5788422-0.0040588,1.1617432-0.0040588,1.7406006L395.2720947,139.9395905z M308.2267761,73.7851715v57.450943
	h57.4509583C349.4292908,114.9876633,324.4742126,90.0326004,308.2267761,73.7851715z M377.8661499,439.955719V148.6441193
	h-78.3428345c-4.6429443,0-8.7028809-4.0640869-8.7028809-8.7028809V61.5984001H134.1388855v378.3569336l11.605011-10.4433899
	c1.7406006-1.7405701,3.4812012-2.319458,5.8046722-2.319458c2.3194427,0,4.0640869,0.5788574,5.8046722,2.319458
	l20.3126526,17.9883423l20.3126221-17.9883423c3.4812012-2.9023438,8.1240387-2.9023438,11.605011,0l20.3126373,17.9883423
	l20.3126221-17.9883423c3.4812012-2.9023438,8.1240387-2.9023438,11.6050262,0l20.3126221,17.9883423l20.3126221-17.9883423
	c3.4812012-2.9023438,8.124054-2.9023438,11.605011,0l20.3126526,17.9883423l20.3126221-17.9883423
	c3.4812012-2.9023438,8.1240234-2.9023438,11.605011,0L377.8661499,439.955719z M343.0459595,380.7638855H168.9553528
	c-4.6429291,0-8.7028809,4.0640869-8.7028809,8.7028809c0,4.6429138,4.0640869,8.7028809,8.7028809,8.7028809h174.0906067
	c4.6429443,0,8.7028809-4.0640869,8.7028809-8.7028809S347.6887817,380.7638855,343.0459595,380.7638855z"/>
</svg>
