<svg xmlns="http://www.w3.org/2000/svg" version="1.1" xmlns:xlink="http://www.w3.org/1999/xlink" xmlns:svgjs="http://svgjs.com/svgjs" width="512" height="512" x="0" y="0" viewBox="0 0 512 512" style="enable-background:new 0 0 512 512" xml:space="preserve" class=""><g transform="matrix(0.8600000000000001,0,0,0.8599999999999999,35.84007223119963,35.840069427490306)"><path d="M394.667 341.333A10.66 10.66 0 0 0 384 352v21.333c0 5.896 4.771 10.667 10.667 10.667s10.667-4.771 10.667-10.667V352a10.662 10.662 0 0 0-10.667-10.667zM330.667 341.333A10.66 10.66 0 0 0 320 352v21.333A10.66 10.66 0 0 0 330.667 384a10.66 10.66 0 0 0 10.667-10.667V352a10.662 10.662 0 0 0-10.667-10.667zM224 341.333A10.66 10.66 0 0 0 213.333 352v21.333c0 5.896 4.771 10.667 10.667 10.667s10.667-4.771 10.667-10.667V352A10.66 10.66 0 0 0 224 341.333zM181.333 341.333A10.66 10.66 0 0 0 170.666 352v21.333A10.66 10.66 0 0 0 181.333 384 10.66 10.66 0 0 0 192 373.333V352a10.66 10.66 0 0 0-10.667-10.667zM138.667 341.333A10.66 10.66 0 0 0 128 352v21.333A10.66 10.66 0 0 0 138.667 384a10.66 10.66 0 0 0 10.667-10.667V352a10.662 10.662 0 0 0-10.667-10.667zM469.333 64h-32a10.66 10.66 0 0 0-10.667 10.667 10.66 10.66 0 0 0 10.667 10.667h32c11.771 0 21.333 9.573 21.333 21.333v32a10.66 10.66 0 0 0 10.667 10.667A10.66 10.66 0 0 0 512 138.667v-32C512 83.135 492.854 64 469.333 64zM10.667 149.333a10.66 10.66 0 0 0 10.667-10.667v-32c0-11.76 9.563-21.333 21.333-21.333h32a10.66 10.66 0 0 0 10.667-10.667A10.661 10.661 0 0 0 74.667 64h-32C19.146 64 0 83.135 0 106.667v32a10.66 10.66 0 0 0 10.667 10.666zM501.333 362.667a10.66 10.66 0 0 0-10.667 10.667v32c0 11.76-9.563 21.333-21.333 21.333h-32a10.66 10.66 0 0 0-10.667 10.667 10.66 10.66 0 0 0 10.667 10.667h32C492.854 448 512 428.865 512 405.333v-32a10.66 10.66 0 0 0-10.667-10.666zM74.667 426.667h-32c-11.771 0-21.333-9.573-21.333-21.333v-32a10.66 10.66 0 0 0-10.667-10.667A10.66 10.66 0 0 0 0 373.333v32C0 428.865 19.146 448 42.667 448h32a10.66 10.66 0 0 0 10.667-10.667 10.661 10.661 0 0 0-10.667-10.666z" fill="#170b6b" data-original="#000000" class=""></path><path d="M501.333 234.667H10.667A10.66 10.66 0 0 0 0 245.333 10.66 10.66 0 0 0 10.667 256H64v117.333A10.66 10.66 0 0 0 74.667 384a10.66 10.66 0 0 0 10.667-10.667V256H128v53.333A10.66 10.66 0 0 0 138.667 320a10.66 10.66 0 0 0 10.667-10.667V256h21.333v53.333A10.66 10.66 0 0 0 181.334 320a10.66 10.66 0 0 0 10.667-10.667V256h21.333v53.333c0 5.896 4.771 10.667 10.667 10.667s10.667-4.771 10.667-10.667V256h42.667v117.333c0 5.896 4.771 10.667 10.667 10.667s10.667-4.771 10.667-10.667V256H320v53.333A10.66 10.66 0 0 0 330.667 320a10.66 10.66 0 0 0 10.667-10.667V256H384v53.333c0 5.896 4.771 10.667 10.667 10.667s10.667-4.771 10.667-10.667V256h21.333v117.333A10.66 10.66 0 0 0 437.334 384a10.66 10.66 0 0 0 10.667-10.667V256h53.333a10.66 10.66 0 0 0 10.667-10.667 10.662 10.662 0 0 0-10.668-10.666zM74.667 128A10.66 10.66 0 0 0 64 138.667v64a10.66 10.66 0 0 0 10.667 10.667 10.66 10.66 0 0 0 10.667-10.667v-64A10.662 10.662 0 0 0 74.667 128zM138.667 213.333a10.66 10.66 0 0 0 10.667-10.667v-64a10.66 10.66 0 0 0-10.667-10.667A10.66 10.66 0 0 0 128 138.666v64a10.66 10.66 0 0 0 10.667 10.667zM181.333 213.333A10.66 10.66 0 0 0 192 202.666v-64a10.66 10.66 0 0 0-10.667-10.667 10.66 10.66 0 0 0-10.667 10.667v64a10.662 10.662 0 0 0 10.667 10.667zM224 213.333a10.66 10.66 0 0 0 10.667-10.667v-64c0-5.896-4.771-10.667-10.667-10.667s-10.667 4.771-10.667 10.667v64A10.66 10.66 0 0 0 224 213.333zM288 213.333a10.66 10.66 0 0 0 10.667-10.667v-64c0-5.896-4.771-10.667-10.667-10.667s-10.667 4.771-10.667 10.667v64A10.66 10.66 0 0 0 288 213.333zM330.667 213.333a10.66 10.66 0 0 0 10.667-10.667v-64a10.66 10.66 0 0 0-10.667-10.667A10.66 10.66 0 0 0 320 138.666v64a10.66 10.66 0 0 0 10.667 10.667zM394.667 213.333a10.66 10.66 0 0 0 10.667-10.667v-64c0-5.896-4.771-10.667-10.667-10.667S384 132.771 384 138.667v64a10.66 10.66 0 0 0 10.667 10.666zM437.333 213.333A10.66 10.66 0 0 0 448 202.666v-64a10.66 10.66 0 0 0-10.667-10.667 10.66 10.66 0 0 0-10.667 10.667v64a10.662 10.662 0 0 0 10.667 10.667z" fill="#170b6b" data-original="#000000" class=""></path></g></svg>