<svg xmlns="http://www.w3.org/2000/svg" version="1.1" xmlns:xlink="http://www.w3.org/1999/xlink" xmlns:svgjs="http://svgjs.com/svgjs" width="512" height="512" x="0" y="0" viewBox="0 0 60 60" style="enable-background:new 0 0 512 512" xml:space="preserve" class=""><g transform="matrix(0.8700000000000001,0,0,0.8700000000000001,3.8999999999999915,3.8999999999999915)"><path d="M59 58H38v-2a2 2 0 0 0-2-2v-4h14.206a2 2 0 0 0 1.7-3.052l-16.084-26a1.986 1.986 0 0 0-1.7-.948H19.794a2 2 0 0 0-1.7 3.052L30 42.3V54a2 2 0 0 0-2 2v2H17v-2a2 2 0 0 0-2-2v-4h10.187a2 2 0 0 0 1.691-3.067l-11.983-19A1.991 1.991 0 0 0 13.2 27H2.813a2 2 0 0 0-1.691 3.067L9 42.558V54a2 2 0 0 0-2 2v2H1a1 1 0 0 0 0 2h58a1 1 0 0 0 0-2ZM35.878 48l-5.567-9h14.331l5.569 9Zm7.527-11H29.073l-4.33-7h14.33Zm-9.283-15 3.713 6H23.506l-3.712-6ZM32 45.533l2 3.233V54h-2ZM14.8 48l-3.784-6h10.391l3.786 6Zm5.348-8H9.751L6.6 35h10.389ZM13.2 29l2.524 4H5.336l-2.523-4ZM11 45.729l2 3.171V54h-2ZM9 58v-2h6v2Zm21 0v-2h6v2ZM54 12a6 6 0 1 0-6 6 6.006 6.006 0 0 0 6-6Zm-6 4a4 4 0 1 1 4-4 4 4 0 0 1-4 4ZM48 4a1 1 0 0 0 1-1V1a1 1 0 0 0-2 0v2a1 1 0 0 0 1 1ZM47 21v2a1 1 0 0 0 2 0v-2a1 1 0 0 0-2 0ZM42.634 4.706a1 1 0 0 0 1.732-1l-1-1.732a1 1 0 1 0-1.732 1ZM52.634 22.026a1 1 0 1 0 1.732-1l-1-1.732a1 1 0 1 0-1.732 1ZM37.974 7.366l1.732 1a1 1 0 0 0 1-1.732l-1.732-1a1 1 0 1 0-1 1.732ZM55.294 17.366l1.732 1a1 1 0 1 0 1-1.732l-1.732-1a1 1 0 1 0-1 1.732ZM37 13h2a1 1 0 0 0 0-2h-2a1 1 0 0 0 0 2ZM59 11h-2a1 1 0 0 0 0 2h2a1 1 0 0 0 0-2ZM39.706 15.634l-1.732 1a1 1 0 1 0 1 1.732l1.732-1a1 1 0 0 0-1-1.732ZM55.8 8.5a.992.992 0 0 0 .5-.134l1.732-1a1 1 0 1 0-1-1.732l-1.732 1a1 1 0 0 0 .5 1.866ZM42 22.393a1 1 0 0 0 1.366-.367l1-1.732a1 1 0 0 0-1.732-1l-1 1.732A1 1 0 0 0 42 22.393ZM52 5.072a1 1 0 0 0 1.366-.366l1-1.732a1 1 0 1 0-1.732-1l-1 1.732A1 1 0 0 0 52 5.072Z" fill="#170b6b" data-original="#000000" class=""></path></g></svg>