<svg xmlns="http://www.w3.org/2000/svg" version="1.1" xmlns:xlink="http://www.w3.org/1999/xlink" xmlns:svgjs="http://svgjs.com/svgjs" width="512" height="512" x="0" y="0" viewBox="0 0 536.32 536.32" style="enable-background:new 0 0 512 512" xml:space="preserve" class=""><g transform="matrix(0.9400000000000001,0,0,0.9400000000000001,16.089448242187444,16.089537506103454)"><path d="M532.857 128.744 410.892 39.501a8.38 8.38 0 0 0-6.997-1.383L257.378 75.282a8.38 8.38 0 0 0-2.891 14.873l38.797 28.323-8.38 42.484c-4.567 23.714 33.518 61.255 84.843 71.226a143.273 143.273 0 0 0 27.317 2.598 130.78 130.78 0 0 0 41.395-6.452c20.53-6.829 34.23-18.226 36.619-30.418l8.38-42.359 46.548-11.773a8.38 8.38 0 0 0 2.891-14.873zm-74.118 65.947c-.964 4.902-10.055 12.569-25.516 17.723a122.465 122.465 0 0 1-60.333 3.268c-47.135-9.176-73.447-41.06-71.226-51.534l6.746-34.733 68.042 49.942a8.38 8.38 0 0 0 4.944 1.634 7.278 7.278 0 0 0 2.095-.293l81.952-20.739zm-75.416-31.172L278.788 87.097l125.4-31.759 104.409 76.38zM204.88 236.379a8.381 8.381 0 0 0-4.19 7.165v149.491a8.382 8.382 0 0 0 4.19 7.165 8.135 8.135 0 0 0 4.19 1.215 8.375 8.375 0 0 0 3.896-.922l142.872-74.788a8.379 8.379 0 0 0 0-14.831l-142.746-74.788a8.381 8.381 0 0 0-8.212.293zm12.57 20.949 116.434 60.961-116.308 60.919z" fill="#170b6b" data-original="#000000" class=""></path><path d="M511.154 448.173h-43.029a24.093 24.093 0 0 0 1.131-7.248V247.063a8.38 8.38 0 0 0-16.76 0v193.861a7.374 7.374 0 0 1-7.498 7.248H74.536a7.374 7.374 0 0 1-7.5-7.246V187.274a7.374 7.374 0 0 1 7.498-7.248h185.232a8.38 8.38 0 0 0 0-16.76H74.536c-13.319-.046-24.167 10.689-24.259 24.007v253.65c.005 2.46.386 4.904 1.131 7.248H8.38a8.38 8.38 0 0 0-8.38 8.38v2.095c0 18.854 14.832 39.803 34.733 39.803H484.8c19.901 0 34.733-20.949 34.733-39.803v-2.095a8.38 8.38 0 0 0-8.379-8.378zM484.8 481.691H34.733c-7.248 0-14.622-7.709-17.094-16.759h484.255c-2.472 9.05-9.846 16.759-17.094 16.759z" fill="#170b6b" data-original="#000000" class=""></path></g></svg>